<svg width="64" height="56" viewBox="0 0 64 56" fill="none" xmlns="http://www.w3.org/2000/svg">
<path d="M0.601562 21.4935L31.9973 0.600586L63.3984 21.4936L51.4247 55.2426H12.5753L0.601562 21.4935Z" fill="#D2202F" stroke="#D2202F"/>
<path fill-rule="evenodd" clip-rule="evenodd" d="M37.3397 23C37.3847 23.01 37.4297 23.0175 37.4747 23.025C37.5197 23.0325 37.5647 23.04 37.6097 23.05C37.8097 23.1 38.0097 23.18 38.1697 23.31C38.5197 23.59 38.7497 23.95 38.8197 24.4C38.8697 24.75 38.8197 25.08 38.6597 25.4C38.4897 25.73 38.2297 25.97 37.8997 26.13C37.4797 26.34 37.0397 26.34 36.6197 26.17C36.2697 26.03 35.9997 25.8 35.8197 25.48C35.5797 25.04 35.5297 24.57 35.6997 24.09C35.7897 23.82 35.9497 23.61 36.1497 23.42C36.4097 23.18 36.7097 23.05 37.0597 23.02C37.0647 23.02 37.0697 23.0175 37.0747 23.015C37.0797 23.0125 37.0847 23.01 37.0897 23.01C37.1697 23 37.2497 23 37.3397 23ZM37.5397 24.64C37.5397 24.46 37.3997 24.31 37.2097 24.32C37.0297 24.32 36.8897 24.47 36.8897 24.64C36.8897 24.83 37.0297 24.98 37.2197 24.98C37.3997 24.97 37.5397 24.83 37.5397 24.64ZM25.5896 29.1099L25.6697 29.1541C25.8202 29.2372 25.9635 29.3163 26.0996 29.4099C26.4396 29.6499 26.6896 29.9599 26.8896 30.3199C26.9096 30.3599 26.9296 30.3999 26.9496 30.4499C26.9596 30.4699 26.9696 30.4799 26.9996 30.4699C27.0549 30.4478 27.1163 30.4287 27.1788 30.4093L27.1788 30.4093L27.1789 30.4093C27.2293 30.3936 27.2805 30.3778 27.3296 30.3599C27.8796 30.1599 28.4296 29.9399 28.9696 29.6999C29.4296 29.4899 29.8996 29.3099 30.3896 29.1799C30.7796 29.0699 31.1796 29.0099 31.5796 28.9599C31.9485 28.9146 32.3174 28.9153 32.6835 28.9161H32.6837C32.8833 28.9165 33.0821 28.9169 33.2796 28.9099H33.3496C33.3496 28.9049 33.3521 28.9024 33.3546 28.8999C33.3571 28.8974 33.3596 28.8949 33.3596 28.8899C33.3346 28.8699 33.3121 28.8474 33.2896 28.8249L33.2896 28.8248C33.2671 28.8024 33.2446 28.7799 33.2196 28.7599C33.0596 28.5999 32.9796 28.4099 33.0096 28.1899C33.0396 27.9399 33.1796 27.7599 33.4096 27.6599C33.6496 27.5699 33.8796 27.6099 34.0696 27.7799C34.2296 27.9199 34.3796 28.0699 34.5296 28.2199C34.6446 28.3298 34.757 28.4422 34.8694 28.5546L34.8697 28.5549C34.9821 28.6674 35.0946 28.7799 35.2096 28.8899C35.2209 28.9012 35.2325 28.9125 35.2441 28.9239L35.2581 28.9376C35.3245 29.0023 35.3935 29.0697 35.4496 29.1499C35.6496 29.3999 35.6296 29.7699 35.4096 29.9999L35.4095 30C35.3096 30.1 35.2096 30.1999 35.1196 30.2999L34.4296 31.0199C34.3776 31.0719 34.3288 31.1271 34.28 31.1823L34.28 31.1823C34.2068 31.2651 34.1336 31.3479 34.0496 31.4199C33.6896 31.7299 33.1196 31.5299 33.0196 31.0799C32.9596 30.8299 33.0196 30.6199 33.2096 30.4399C33.2752 30.3837 33.3319 30.3188 33.3964 30.2451L33.3965 30.245L33.3965 30.2449L33.4096 30.2299H33.3396H32.0996C31.7696 30.2399 31.4496 30.2699 31.1196 30.3399C30.5996 30.4499 30.0996 30.6199 29.6196 30.8299C29.5664 30.8532 29.512 30.8754 29.4576 30.8976L29.4575 30.8976L29.4574 30.8977L29.4574 30.8977L29.4573 30.8977C29.3485 30.9421 29.2396 30.9866 29.1396 31.0399C28.6496 31.2699 28.1396 31.4699 27.6296 31.6499C27.5396 31.6699 27.4497 31.6999 27.3597 31.7299L27.3596 31.7299L27.1796 31.7899C27.1696 31.7899 27.1596 31.8099 27.1596 31.8199C27.1546 31.8449 27.1521 31.8674 27.1496 31.8899C27.1471 31.9124 27.1446 31.9349 27.1396 31.9599C27.1996 31.9799 27.2621 31.9974 27.3246 32.0149C27.3871 32.0324 27.4496 32.0499 27.5096 32.0699L27.5776 32.0938L27.6906 32.1333C27.9673 32.2301 28.2385 32.3248 28.5096 32.4399C28.7749 32.5487 29.031 32.6622 29.2904 32.7771C29.4123 32.8312 29.5349 32.8855 29.6596 32.9399C29.7396 32.9749 29.8221 33.0049 29.9047 33.0349C29.9872 33.0649 30.0696 33.0949 30.1496 33.1299C30.4596 33.2599 30.7896 33.3499 31.1196 33.4099C31.5096 33.4899 31.9096 33.5199 32.3096 33.5199H33.3196H33.3696C33.3096 33.4599 33.2596 33.4099 33.2096 33.3699C33.1096 33.2699 33.0396 33.1499 33.0196 33.0199C32.9796 32.8299 33.0296 32.6699 33.1196 32.5099C33.2996 32.2199 33.7796 32.0999 34.1096 32.4399C34.2247 32.5549 34.3397 32.6674 34.4547 32.7799C34.5697 32.8924 34.6847 33.0049 34.7996 33.1199C34.8626 33.1828 34.9267 33.2458 34.9911 33.3091L34.9911 33.3092L34.9912 33.3092L34.9912 33.3092C35.1212 33.437 35.2526 33.5662 35.3796 33.6999C35.5996 33.9199 35.6396 34.2599 35.4696 34.5299C35.4396 34.5799 35.3996 34.6299 35.3496 34.6799C35.2609 34.7736 35.1721 34.8648 35.0846 34.9548C34.9946 35.0474 34.9058 35.1386 34.8196 35.2299C34.7642 35.2878 34.7081 35.3458 34.6519 35.4039C34.485 35.5764 34.3167 35.7504 34.1596 35.9299C34.0496 36.0499 33.9296 36.1399 33.7696 36.1799L33.7738 36.1819C33.7795 36.1846 33.7844 36.1864 33.7887 36.1881C33.7973 36.1913 33.8035 36.1937 33.8096 36.1999C33.9196 36.2299 34.0096 36.2899 34.0896 36.3699C34.1346 36.4099 34.1771 36.4524 34.2196 36.4949L34.2198 36.4951C34.2623 36.5375 34.3047 36.5799 34.3496 36.6199C34.4697 36.7399 34.5922 36.8599 34.7147 36.98C34.8372 37.0999 34.9597 37.2199 35.0796 37.3399C35.1526 37.4062 35.2212 37.477 35.2912 37.5492C35.3267 37.5858 35.3626 37.6229 35.3996 37.6599C35.6496 37.9099 35.6496 38.3199 35.3996 38.5799C35.1196 38.8699 34.8496 39.1499 34.5796 39.4399C34.4744 39.5451 34.3735 39.6546 34.2713 39.7656C34.218 39.8235 34.1644 39.8817 34.1096 39.9399C33.9296 40.1299 33.6296 40.1899 33.3896 40.0899C33.1396 39.9799 32.9796 39.7299 32.9896 39.4599C32.9996 39.2799 33.0696 39.1299 33.1896 39.0099C33.2359 38.9702 33.2778 38.9262 33.3211 38.8807L33.3211 38.8807L33.3212 38.8806C33.3434 38.8573 33.3659 38.8336 33.3896 38.8099H33.3396C32.8996 38.8099 32.4596 38.8099 32.0196 38.7999C31.9096 38.7999 31.8096 38.7999 31.6996 38.7899C30.9196 38.7199 30.1496 38.6199 29.3996 38.4099C29.0696 38.3199 28.7396 38.2199 28.4296 38.0999C27.9396 37.9099 27.4496 37.6899 26.9996 37.4099C26.6796 37.2099 26.3596 36.9999 26.0696 36.7399C26.028 36.7016 25.986 36.6635 25.9441 36.6254C25.7344 36.4352 25.5246 36.2449 25.3496 36.0199L25.3496 36.0198C25.1696 35.7899 24.9896 35.5599 24.8396 35.3199C24.6996 35.0899 24.5796 34.8499 24.4596 34.6099C24.4126 34.508 24.3717 34.3999 24.3321 34.2953L24.3321 34.2953L24.3321 34.2952L24.3321 34.2951L24.3164 34.2538L24.2996 34.2099C24.2896 34.1699 24.2696 34.1599 24.2296 34.1499C23.9396 34.1099 23.6696 34.0299 23.4096 33.8899C23.0896 33.7099 22.7896 33.4999 22.5696 33.1999C22.4096 32.9899 22.2596 32.7599 22.1696 32.5099C21.9996 32.0599 21.9596 31.5899 22.0396 31.1099C22.0796 30.8599 22.1596 30.6299 22.2696 30.3999C22.3996 30.1299 22.5696 29.9099 22.7796 29.6999C23.1896 29.2899 23.6796 29.0599 24.2396 28.9799C24.2696 28.9799 24.2896 28.9699 24.2996 28.9399C24.4696 28.4499 24.6996 27.9999 24.9896 27.5899C25.1596 27.3399 25.3596 27.1099 25.5596 26.8799C25.7896 26.6199 26.0596 26.3999 26.3296 26.1799L26.3296 26.1799C26.6796 25.8999 27.0596 25.6799 27.4496 25.4699C28.0096 25.1699 28.5996 24.9599 29.1996 24.7699C29.7496 24.5999 30.3096 24.4899 30.8796 24.4099C31.3796 24.3399 31.8796 24.3099 32.3796 24.3099H33.2996H33.3596L33.3696 24.2999C33.3446 24.2749 33.3171 24.2499 33.2896 24.2249L33.2896 24.2248C33.2621 24.1998 33.2346 24.1749 33.2096 24.1499C33.0096 23.9499 32.9596 23.6499 33.0796 23.3799C33.2396 23.0299 33.7496 22.8599 34.0896 23.1899C34.3796 23.4599 34.6596 23.7398 34.9396 24.0198L34.9396 24.0199L35.3796 24.4599C35.6596 24.7399 35.6696 25.1299 35.3996 25.4199C35.3278 25.495 35.2559 25.5712 35.1837 25.6478C35.0348 25.8056 34.8845 25.965 34.7296 26.1199C34.6296 26.2299 34.5271 26.3374 34.4246 26.4449C34.3221 26.5524 34.2196 26.6599 34.1196 26.7699C33.8796 27.0299 33.5296 27.0299 33.3296 26.8899C32.9096 26.6199 32.9196 26.1099 33.2096 25.8399C33.2796 25.7799 33.3396 25.7099 33.3996 25.6399C33.3946 25.6399 33.3921 25.6374 33.3896 25.6349C33.3871 25.6324 33.3846 25.6299 33.3796 25.6299C33.2593 25.6299 33.1396 25.6293 33.0203 25.6286H33.0202C32.6633 25.6268 32.3093 25.6249 31.9496 25.6399C31.0296 25.6799 30.1296 25.8399 29.2596 26.1299C28.7296 26.3099 28.2096 26.5199 27.7296 26.8199C27.3896 27.0199 27.0596 27.2299 26.7696 27.4999C26.5296 27.7199 26.2896 27.9499 26.0896 28.2199C25.9396 28.4399 25.7896 28.6599 25.6796 28.8999C25.6582 28.9428 25.6425 28.9828 25.6279 29.0199C25.6153 29.052 25.6036 29.082 25.5896 29.1099ZM33.5096 36.1599C33.3696 36.1199 33.2396 36.0599 33.1496 35.9299C32.9296 35.6299 32.9596 35.2699 33.2296 35.0199L33.4096 34.8399H32.3996C32.0396 34.8399 31.6796 34.8199 31.3196 34.7699C30.9596 34.7199 30.5996 34.6599 30.2496 34.5299C30.1729 34.4979 30.0921 34.4741 30.0124 34.4507C29.9675 34.4374 29.9229 34.4243 29.8796 34.4099C29.3996 34.2399 28.9196 34.0399 28.4596 33.8299C27.8796 33.5599 27.2796 33.3599 26.6596 33.1999C26.6196 33.1899 26.5996 33.1999 26.5796 33.2299C26.5646 33.2449 26.5521 33.2624 26.5396 33.2799C26.5271 33.2974 26.5146 33.3149 26.4996 33.3299C26.2496 33.5899 25.9596 33.7899 25.6396 33.9499L25.6321 33.9539L25.6253 33.9577C25.6136 33.9645 25.6043 33.9699 25.5896 33.9699C25.5896 33.9799 25.5896 33.9899 25.5996 33.9999C25.6371 34.0711 25.6732 34.1437 25.7094 34.2167C25.7699 34.3384 25.8309 34.4611 25.8996 34.5799C26.0496 34.8399 26.2496 35.0599 26.4496 35.2799C26.6896 35.5499 26.9796 35.7599 27.2696 35.9699C27.6596 36.2499 28.0896 36.4599 28.5096 36.6599C28.585 36.6976 28.6605 36.7239 28.7402 36.7517L28.7402 36.7518L28.7402 36.7518L28.7403 36.7518L28.7407 36.7519C28.7665 36.7609 28.7928 36.7701 28.8196 36.7799C29.5196 37.0599 30.2496 37.2199 30.9896 37.3399C31.2696 37.3899 31.5596 37.4199 31.8496 37.4299C32.1436 37.4419 32.4375 37.4431 32.7314 37.4443H32.7317C32.9277 37.4451 33.1237 37.4459 33.3196 37.4499H33.3696C33.3409 37.4163 33.3121 37.3851 33.2845 37.355C33.2544 37.3224 33.2257 37.2911 33.1996 37.2599C32.9296 36.9799 32.9596 36.5299 33.2596 36.2899C33.2946 36.2699 33.3346 36.2499 33.3771 36.2286L33.3772 36.2286L33.3776 36.2284C33.42 36.2072 33.4648 36.1848 33.5096 36.1599ZM38.8396 33.8501C38.8396 32.9401 38.1096 32.2001 37.2196 32.2001C36.3396 32.1901 35.5996 32.93 35.5996 33.84C35.5996 34.7401 36.3296 35.4901 37.2196 35.4901C38.0996 35.4901 38.8396 34.7701 38.8396 33.8501ZM37.5296 33.8501C37.5296 34.0301 37.3896 34.1701 37.2096 34.1701C37.0296 34.1701 36.8896 34.0301 36.8896 33.84C36.8896 33.6601 37.0296 33.5201 37.2096 33.5201C37.3896 33.5201 37.5296 33.6601 37.5296 33.8501ZM35.5996 29.2501C35.5996 28.3401 36.3196 27.6101 37.2196 27.6101C38.1196 27.6101 38.8396 28.3401 38.8396 29.2501C38.8396 30.1501 38.1296 30.8901 37.2196 30.8901C36.2996 30.8901 35.5996 30.1301 35.5996 29.2501ZM37.2096 29.5701C37.3896 29.5701 37.5296 29.4301 37.5396 29.2501C37.5396 29.0801 37.3796 28.9101 37.2196 28.9101C37.0596 28.9101 36.8896 29.0801 36.8896 29.2401C36.8896 29.4201 37.0296 29.5701 37.2096 29.5701ZM37.2196 36.8101C36.2996 36.8101 35.5996 37.5601 35.5996 38.4501C35.5996 39.3601 36.3096 40.0901 37.2196 40.0901C38.1196 40.0901 38.8396 39.3601 38.8396 38.4501C38.8396 37.5501 38.1296 36.8101 37.2196 36.8101ZM37.2096 38.7901C37.0596 38.7901 36.8796 38.6301 36.8896 38.4501C36.8896 38.2701 37.0396 38.1201 37.2096 38.1301C37.3796 38.1301 37.5296 38.2701 37.5296 38.4501C37.5396 38.6401 37.3696 38.7901 37.2096 38.7901Z" fill="white"/>
</svg>
