<svg width="64" height="56" viewBox="0 0 64 56" fill="none" xmlns="http://www.w3.org/2000/svg">
<path d="M0.601562 21.4935L31.9973 0.600586L63.3984 21.4936L51.4247 55.2426H12.5753L0.601562 21.4935Z" fill="#D2202F" stroke="#D2202F"/>
<path fill-rule="evenodd" clip-rule="evenodd" d="M30.2532 34.9207H31.7935V37.7862H30.2532V34.9207ZM27.1669 34.9207H25.6266V37.7862H27.1669V34.9207ZM30.2532 30.6138H31.7935V33.4851H30.2532V30.6138ZM31.7935 26.3069H30.2532V29.1782H31.7935V26.3069ZM25.6266 30.6138H27.1669V33.4851H25.6266V30.6138ZM25.6266 26.3069H27.1669V29.1782H25.6266V26.3069ZM36.4144 30.6138V40.6632H41.041V30.6138H36.4144ZM34.8741 23.4356H22.5403V40.6574H34.8684V23.4356H34.8741ZM42.1307 29.595C42.4216 29.867 42.5813 30.2317 42.5813 30.608V42.093H21V23.4356C21 23.0536 21.1597 22.6889 21.4506 22.4226C21.7416 22.1505 22.1295 22 22.5403 22H34.8684C35.2792 22 35.6671 22.1505 35.958 22.4226C36.249 22.6947 36.4087 23.0594 36.4087 23.4356V29.1782H41.0353C41.4461 29.1782 41.8397 29.3287 42.1307 29.595Z" fill="white"/>
</svg>
