<svg width="64" height="56" viewBox="0 0 64 56" fill="none" xmlns="http://www.w3.org/2000/svg">
<path d="M0.601562 21.4935L31.9973 0.600586L63.3984 21.4936L51.4247 55.2426H12.5753L0.601562 21.4935Z" fill="#D2202F" stroke="#D2202F"/>
<g clip-path="url(#clip0)">
<path d="M35.2647 31.7313C35.0486 31.7313 34.8676 31.5755 34.747 31.4599C34.4906 31.2086 34.2343 30.9472 33.978 30.6909C33.6965 30.4094 33.42 30.1279 33.1385 29.8515C32.8671 29.5851 32.5907 29.3237 32.3192 29.0674C32.0177 28.7808 31.7161 28.4943 31.4195 28.2028C31.2687 28.052 31.0727 27.8258 31.133 27.5594C31.1933 27.293 31.4798 27.1624 31.6859 27.092L31.7111 27.0819L31.7764 27.0669C32.5153 26.9915 33.028 26.5642 33.3949 25.7349C33.415 25.6946 33.4351 25.6544 33.4602 25.6142C33.4703 25.5991 33.4803 25.579 33.4904 25.564C34.2242 24.0359 35.3401 22.7341 36.8028 21.6836C37.0742 21.4876 37.3808 21.3468 37.6774 21.2111C37.8081 21.1508 37.9337 21.0905 38.0594 21.0302L38.1147 21H38.6324C39.7885 21.1709 40.4519 21.9249 41.0903 22.6487C41.2059 22.7844 41.3265 22.9151 41.4472 23.0457C42.1408 23.7947 42.1961 24.9708 41.5728 25.7901C40.9697 26.5843 40.3012 27.3332 39.6678 28.0269C39.512 28.1978 39.311 28.2933 39.1149 28.3888C39.0295 28.429 38.9491 28.4692 38.8686 28.5145L38.0644 29.002C37.5216 29.3338 36.9787 29.6605 36.4308 29.9771C36.2298 30.0927 36.1242 30.2234 36.074 30.4195C36.0086 30.6708 35.9232 30.912 35.8377 31.1483C35.7674 31.3343 35.6266 31.7313 35.2647 31.7313ZM35.0234 30.0525C35.129 29.6203 35.3904 29.2935 35.8478 29.0322C36.5414 28.6351 37.2351 28.2129 37.9086 27.8007L38.6022 27.3785L38.7229 27.3081C38.8385 27.2428 38.944 27.1825 39.0094 27.1071C39.5422 26.519 40.0549 25.9208 40.5424 25.3378C41.0099 24.7748 40.9797 24.1214 40.467 23.5886C40.1353 23.2418 39.7985 22.91 39.4567 22.5733C39.1702 22.2918 38.8284 22.141 38.4816 22.141C38.1549 22.141 37.8181 22.2666 37.5065 22.5079C36.1041 23.5836 35.1039 24.7597 34.4555 26.1018C34.4002 26.2124 34.3348 26.3179 34.2695 26.4184C34.2142 26.5039 34.1589 26.5944 34.1137 26.6899C33.8875 27.1573 33.5507 27.6951 32.8973 27.9163L35.0234 30.0525Z" fill="white"/>
<path d="M38.6273 21.2512C39.8538 21.4372 40.5072 22.4123 41.2561 23.2216C41.8694 23.88 41.9046 24.9305 41.3667 25.6443C40.7786 26.4183 40.1302 27.1472 39.4768 27.8659C39.2908 28.067 38.9842 28.1575 38.7329 28.3032C37.9237 28.7908 37.1194 29.2934 36.3001 29.7659C36.0538 29.9117 35.898 30.0876 35.8276 30.3641C35.7623 30.6204 35.6718 30.8717 35.5814 31.118C35.4306 31.5402 35.2396 31.5905 34.9229 31.2839C34.38 30.7511 33.8523 30.2082 33.3094 29.6805C32.7414 29.1276 32.1584 28.5897 31.5904 28.0318C31.2436 27.69 31.2989 27.499 31.7613 27.3332C31.7714 27.3281 31.7864 27.3231 31.7965 27.3231C32.7264 27.2276 33.2642 26.6445 33.616 25.8403C33.6412 25.785 33.6814 25.7348 33.7115 25.6744C34.4554 24.1263 35.5562 22.8798 36.9435 21.8896C37.3155 21.6232 37.7578 21.4623 38.1699 21.2562C38.3258 21.2512 38.4766 21.2512 38.6273 21.2512ZM35.129 30.5098C35.1642 30.4093 35.2295 30.2887 35.2546 30.158C35.3401 29.7307 35.5914 29.4643 35.9684 29.2482C36.8983 28.7154 37.8131 28.1474 38.7279 27.5945C38.8887 27.499 39.0697 27.4136 39.1903 27.2779C39.713 26.6948 40.2257 26.1017 40.7284 25.5035C41.2813 24.8401 41.2411 24.0459 40.6429 23.4176C40.3112 23.0708 39.9694 22.734 39.6276 22.3972C38.9591 21.7388 38.0895 21.7438 37.3456 22.3118C36.0337 23.3171 34.948 24.4983 34.2192 25.9961C34.1187 26.2022 33.9729 26.3832 33.8774 26.5842C33.5909 27.1773 33.2139 27.6498 32.5102 27.7503C32.47 27.7554 32.4298 27.7956 32.4147 27.8056C33.3245 28.7104 34.2242 29.6051 35.129 30.5098Z" fill="white"/>
<path d="M37.5165 40.9045C36.7324 40.9045 35.9935 40.6532 35.32 40.1556C34.0131 39.1905 33.5105 37.8434 33.8322 36.1596C33.8472 36.0892 33.8322 35.9937 33.8171 35.9686C33.1385 35.29 32.4399 34.6115 31.7311 33.9229L31.3039 33.5057C31.2687 33.5409 31.2285 33.571 31.1983 33.6062C31.0475 33.757 30.8967 33.9078 30.751 34.0636C30.4444 34.3803 30.1277 34.707 29.7909 35.0086C28.6198 36.0641 27.7703 37.1699 27.1973 38.3913C27.0968 38.6075 26.8756 38.8236 26.6143 38.9643C26.2926 39.1352 25.9608 39.291 25.6291 39.4469C25.423 39.5424 25.2119 39.6429 25.0108 39.7434C24.8902 39.8037 24.7796 39.8339 24.6691 39.8339C24.4781 39.8339 24.3122 39.7535 24.1463 39.5826C23.8397 39.2609 23.5281 38.9492 23.2164 38.6527C22.945 38.3963 22.8897 38.0797 23.0606 37.7429C23.1561 37.5519 23.2516 37.3659 23.3421 37.1749C23.508 36.8231 23.6789 36.4813 23.8598 36.1445C23.9553 35.9686 24.1212 35.8027 24.3222 35.6871C24.5032 35.5816 24.6892 35.4861 24.8751 35.3956C25.0913 35.285 25.3124 35.1744 25.5185 35.0437C25.8955 34.8075 26.3278 34.5411 26.6645 34.2194C27.2928 33.6263 27.9111 32.998 28.5092 32.3948L29.2129 31.6861C29.2581 31.6409 29.3034 31.5906 29.3486 31.5404L28.9616 31.1533C28.3031 30.4999 27.6547 29.8565 26.9912 29.2232C26.9963 29.2282 26.9912 29.2282 26.9862 29.2282C26.9762 29.2282 26.951 29.2232 26.9108 29.2232C26.8656 29.2232 26.8153 29.2282 26.7751 29.2383C26.4786 29.3036 26.1719 29.3388 25.8754 29.3388C24.2921 29.3388 22.9249 28.424 22.3016 26.9563C21.9297 26.0716 21.8995 25.1669 22.2112 24.2621C22.3318 23.9153 22.5178 23.7394 22.7641 23.7394C22.9299 23.7394 23.1008 23.8248 23.2818 24.0058C23.7492 24.4682 24.2117 24.9357 24.6892 25.4182L25.1114 25.8455L26.2725 24.7497L26.1016 24.5838C25.8553 24.3375 25.619 24.1013 25.3828 23.8701C25.2471 23.7394 25.1064 23.6137 24.9706 23.4831C24.7445 23.277 24.5183 23.0659 24.3072 22.8447C24.096 22.6336 24.086 22.4376 24.1162 22.3069C24.1463 22.1712 24.2468 21.9852 24.5635 21.8646C24.9807 21.7037 25.418 21.6233 25.8754 21.6233C27.6849 21.6233 29.3084 22.905 29.6552 24.6039C29.7658 25.1518 29.7155 25.7248 29.6653 26.2777C29.6452 26.524 29.6703 26.5843 29.7658 26.6798C31.1129 27.9917 32.46 29.3137 33.797 30.6356C34.6716 31.5001 35.5411 32.3697 36.4006 33.2443C36.4861 33.3348 36.5364 33.3398 36.5816 33.3398C36.6118 33.3398 36.652 33.3348 36.6972 33.3247C37.0088 33.2544 37.3205 33.2192 37.6321 33.2192C39.713 33.2192 41.3315 34.7522 41.4823 36.8633C41.5125 37.3157 41.4069 37.763 41.3014 38.1953L41.2662 38.3511C41.2008 38.6326 40.9998 38.8085 40.7485 38.8085C40.5927 38.8085 40.4368 38.7381 40.2961 38.6125C40.1252 38.4516 39.9593 38.2858 39.7935 38.1199C39.6577 37.9792 39.517 37.8384 39.3763 37.7027C39.0948 37.4363 38.8083 37.1749 38.5268 36.9186L38.3609 36.7678L37.2903 37.8485L37.3054 37.8636C37.4512 38.0143 37.607 38.1702 37.7678 38.331C38.19 38.7432 38.6173 39.1553 39.0445 39.5625L39.2104 39.7183C39.4265 39.9244 39.4215 40.1254 39.4014 40.226C39.3813 40.3265 39.3009 40.5175 39.0144 40.623C38.4966 40.809 37.999 40.9045 37.5165 40.9045ZM27.0666 28.0319C27.2979 28.0319 27.4989 28.1224 27.7 28.3235C28.7806 29.3991 29.8663 30.4647 30.947 31.5353L32.6861 33.2493C32.9375 33.4956 33.1838 33.7469 33.4351 33.9983C33.8422 34.4104 34.2544 34.8226 34.6716 35.2247C34.9983 35.5363 35.0837 35.863 34.953 36.3154C34.5409 37.7178 35.3401 39.2156 36.7324 39.663C36.9988 39.7484 37.2652 39.7887 37.5366 39.7887C37.5768 39.7887 37.617 39.7887 37.6572 39.7887L37.3104 39.4368C36.9385 39.0649 36.5665 38.6879 36.1895 38.321C36.0739 38.2104 35.9181 38.0294 35.9181 37.7932C35.9181 37.6173 35.9985 37.4564 36.1694 37.2905C36.7324 36.7477 37.2803 36.1898 37.8281 35.6318C37.989 35.471 38.1448 35.3906 38.3157 35.3906C38.4816 35.3906 38.6374 35.466 38.7932 35.6168C39.1903 36.0038 39.5924 36.3858 39.9945 36.7678L40.3866 37.1398C40.4117 36.235 40.0448 35.6168 39.713 35.2498C39.1903 34.6668 38.4062 34.3199 37.612 34.3199C37.3456 34.3199 37.0842 34.3602 36.8329 34.4356C36.7022 34.4758 36.5816 34.4959 36.471 34.4959C36.1342 34.4959 35.9081 34.3149 35.7472 34.1541C35.0033 33.4102 34.2494 32.6713 33.4954 31.9324C32.9576 31.4097 32.4248 30.8819 31.8869 30.3541C31.3491 29.8213 30.8163 29.2885 30.2785 28.7507C29.7658 28.238 29.2581 27.7253 28.7455 27.2177C28.4841 26.9563 28.4137 26.6698 28.5243 26.3179C28.6148 26.0365 28.66 25.7751 28.665 25.5388C28.6751 24.7899 28.3936 24.0862 27.8759 23.5635C27.3582 23.0458 26.6645 22.7593 25.9156 22.7593C25.8804 22.7593 25.8452 22.7593 25.81 22.7593L26.5489 23.478L27.3682 24.2672C27.519 24.4129 27.5994 24.5788 27.5994 24.7447C27.5994 24.8502 27.5693 25.0061 27.4135 25.1619C27.0063 25.564 26.5942 25.956 26.182 26.3531L25.5587 26.9513C25.423 27.0819 25.2722 27.1523 25.1164 27.1523C24.9455 27.1523 24.7796 27.0719 24.6138 26.901C24.3624 26.6447 24.1111 26.3933 23.8598 26.142L23.1159 25.3981C23.1109 25.4635 23.1109 25.5187 23.1109 25.574C23.2064 27.1071 24.3624 28.2179 25.8553 28.2179C26.1468 28.2179 26.4484 28.1727 26.7399 28.0872C26.8606 28.052 26.9661 28.0319 27.0666 28.0319ZM29.4743 32.9678C28.8309 33.6112 28.2227 34.2144 27.6296 34.8527C27.0767 35.4459 26.4383 35.8932 25.7296 36.1847C25.0762 36.4511 24.6691 36.8583 24.4077 37.5067L24.3624 37.6022C24.1915 38.0244 24.1915 38.0244 24.5233 38.3913C24.6791 38.5672 24.7545 38.5823 24.7997 38.5823C24.855 38.5823 24.9254 38.5522 25.0108 38.4969C25.227 38.3561 25.4632 38.2707 25.6944 38.1852C26.0563 38.0546 26.2876 37.8334 26.4434 37.4866C26.9058 36.4562 27.6145 35.5162 28.6047 34.6165C29.037 34.2194 29.4592 33.7922 29.8663 33.375C30.0423 33.194 30.2182 33.0131 30.3941 32.8372C30.4243 32.807 30.4544 32.7718 30.4846 32.7417L30.1026 32.3446C29.8915 32.5507 29.6804 32.7618 29.4743 32.9678Z" fill="white"/>
<path d="M25.1114 26.1972C25.6341 25.6996 26.1167 25.2422 26.6294 24.7546C26.2524 24.3776 25.9056 24.0258 25.5537 23.689C25.2019 23.3472 24.8299 23.0255 24.4881 22.6737C24.2619 22.4375 24.3373 22.2213 24.654 22.1007C26.6243 21.3417 28.9867 22.5882 29.4089 24.6541C29.5195 25.1819 29.4592 25.7549 29.4089 26.3028C29.3888 26.549 29.419 26.6948 29.5899 26.8607C30.937 28.1726 32.279 29.4895 33.6211 30.8114C34.4957 31.6709 35.3602 32.5405 36.2197 33.4151C36.3805 33.581 36.5263 33.6161 36.7525 33.5659C39.0295 33.0632 41.0651 34.5511 41.231 36.8783C41.2612 37.3407 41.1255 37.8283 41.0199 38.2907C40.9495 38.5872 40.6932 38.6375 40.462 38.4214C40.1453 38.1298 39.8588 37.8132 39.5421 37.5166C39.14 37.1396 38.7329 36.7677 38.3459 36.4158C37.8734 36.8934 37.421 37.3508 36.9335 37.8433C37.1295 38.0444 37.3557 38.2756 37.5869 38.5018C38.0644 38.9692 38.5469 39.4317 39.0295 39.8941C39.2205 40.0801 39.1853 40.2811 38.9189 40.3817C37.6975 40.8391 36.5263 40.7285 35.4708 39.9494C34.2041 39.0145 33.7869 37.7328 34.0835 36.1997C34.1086 36.0741 34.0885 35.878 34.0081 35.7976C33.1285 34.913 32.2288 34.0484 31.3139 33.1537C31.2034 33.2542 31.1079 33.3347 31.0224 33.4201C30.555 33.8825 30.1126 34.3701 29.6251 34.8124C28.5243 35.8026 27.6045 36.9235 26.9711 38.2756C26.8857 38.4616 26.6846 38.6325 26.4987 38.733C25.9759 39.0145 25.4331 39.2457 24.9003 39.5071C24.6691 39.6227 24.4982 39.5774 24.3273 39.3965C24.0207 39.0748 23.709 38.7632 23.3873 38.4566C23.1913 38.2706 23.1611 38.0796 23.2818 37.8433C23.5532 37.3156 23.8045 36.7777 24.086 36.255C24.1664 36.1092 24.3122 35.9785 24.4529 35.8931C24.845 35.6669 25.2672 35.486 25.6492 35.2497C26.0614 34.9934 26.4836 34.727 26.8354 34.3952C27.71 33.5709 28.5444 32.7064 29.3888 31.8519C29.4843 31.7564 29.5748 31.6508 29.6955 31.5201C28.841 30.6757 28.0116 29.8413 27.1622 29.0321C27.0767 28.9517 26.8606 28.9517 26.7198 28.9818C24.9355 29.3688 23.2365 28.5144 22.5328 26.8456C22.186 26.0213 22.1559 25.1819 22.4474 24.3324C22.5932 23.9303 22.8043 23.875 23.1109 24.1816C23.7643 24.83 24.4127 25.4885 25.1114 26.1972ZM25.2974 22.5681C25.3426 22.6435 25.3577 22.6888 25.3878 22.724C25.986 23.302 26.5891 23.875 27.1873 24.453C27.3532 24.6139 27.4084 24.8099 27.2325 24.9858C26.6243 25.589 26.0011 26.1771 25.3828 26.7702C25.1667 26.9763 24.9857 26.916 24.7947 26.725C24.4529 26.3731 24.1011 26.0263 23.7492 25.6795C23.4979 25.4231 23.2416 25.1718 22.9199 24.8501C22.8947 25.1668 22.8495 25.3779 22.8596 25.589C22.9902 27.6297 24.845 28.9165 26.8103 28.3284C27.1018 28.2429 27.2979 28.2882 27.514 28.5043C29.1727 30.153 30.8415 31.7865 32.5052 33.4302C33.1687 34.0886 33.8171 34.7622 34.4957 35.4106C34.7621 35.6619 34.8123 35.8931 34.7068 36.2449C34.2544 37.7931 35.124 39.4116 36.6469 39.9042C37.1245 40.06 37.612 40.0901 38.1699 39.9796C38.0292 39.8288 37.9438 39.7333 37.8583 39.6478C37.3607 39.1452 36.8631 38.6375 36.3554 38.1499C36.1192 37.9238 36.079 37.7277 36.3353 37.4814C36.8983 36.9386 37.4512 36.3807 37.999 35.8177C38.2102 35.6016 38.3911 35.5915 38.6123 35.8077C39.1551 36.3354 39.703 36.8531 40.2509 37.3759C40.3363 37.4563 40.4218 37.5367 40.5474 37.6523C40.5826 37.5418 40.6027 37.4965 40.6077 37.4513C40.8741 35.0034 38.5721 33.6363 36.7525 34.2042C36.3956 34.3148 36.1745 34.2394 35.9181 33.9831C34.6414 32.7064 33.3396 31.4548 32.0579 30.1831C31.0073 29.1427 29.9669 28.0871 28.9164 27.0467C28.7203 26.8557 28.6751 26.6697 28.7605 26.4033C28.846 26.1319 28.9113 25.8353 28.9113 25.5488C28.9415 23.7091 27.328 22.1912 25.2974 22.5681ZM30.1076 31.9775C29.1928 32.9024 28.2931 33.7669 27.4436 34.6817C26.9209 35.2397 26.3177 35.6719 25.6291 35.9534C24.9154 36.2449 24.4529 36.7023 24.1664 37.4111C23.895 38.0846 23.8699 38.0494 24.3474 38.5772C24.6037 38.8637 24.8249 38.924 25.1466 38.7129C25.3426 38.5822 25.5738 38.5018 25.8 38.4163C26.2122 38.2656 26.4886 37.9941 26.6746 37.592C27.1622 36.5063 27.896 35.6066 28.7756 34.8074C29.3989 34.2394 29.9769 33.6161 30.5751 33.018C30.6706 32.9225 30.756 32.822 30.8314 32.7365C30.5801 32.4752 30.364 32.249 30.1076 31.9775Z" fill="white"/>
</g>
<defs>
<clipPath id="clip0">
<rect width="20" height="19.9045" fill="white" transform="translate(22 21)"/>
</clipPath>
</defs>
</svg>
