<svg width="64" height="56" viewBox="0 0 64 56" fill="none" xmlns="http://www.w3.org/2000/svg">
<path d="M0.601562 21.4935L31.9973 0.600586L63.3984 21.4936L51.4247 55.2426H12.5753L0.601562 21.4935Z" fill="#D2202F" stroke="#D2202F"/>
<g clip-path="url(#clip0)">
<path d="M42 27.067C42 28.1355 42 29.204 42 30.2724C41.8819 30.7127 41.5812 30.863 41.157 30.8147C41.1195 30.8093 41.0819 30.8147 41.0389 30.8147C40.749 30.8147 40.749 30.8147 40.749 31.11C40.749 33.4456 40.749 35.7811 40.749 38.1221C40.749 38.6214 40.5933 39.0348 40.1208 39.2979C39.8631 39.4429 39.5893 39.4697 39.3047 39.4697C34.4295 39.4697 29.5597 39.4697 24.6846 39.4697C24.5879 39.4697 24.4913 39.4644 24.3946 39.459C23.9919 39.4536 23.3906 39.0885 23.294 38.5838C23.2617 38.4227 23.2403 38.2509 23.2349 38.0899C23.2295 35.7597 23.2349 33.4295 23.2349 31.0993C23.2349 31.0187 23.2349 30.9328 23.2349 30.8201C23.047 30.8201 22.8859 30.8201 22.7195 30.8201C22.2255 30.8093 22 30.5838 22 30.0952C22 29.1503 22 28.1999 22 27.255C22 26.4281 22.5101 25.918 23.3315 25.918C24.5396 25.918 25.753 25.918 26.9611 25.918C27.0309 25.918 27.106 25.9127 27.2188 25.9073C26.9772 25.7087 26.757 25.5637 26.5691 25.3865C25.2483 24.1731 25.6295 22.0201 27.0899 21.3006C28.2443 20.7368 29.5973 20.9409 30.4671 22.0845C30.7839 22.5033 31.0523 22.9597 31.294 23.4268C31.6805 24.1677 31.9812 24.9355 31.9436 25.7946C31.9436 25.8321 31.9651 25.8644 31.9919 25.9503C32.0242 25.8751 32.0403 25.8482 32.0403 25.8214C32.0456 25.6603 32.0242 25.4939 32.051 25.3382C32.2711 24.012 32.851 22.8523 33.7369 21.8482C34.3866 21.1073 35.2188 20.8818 36.1638 21.0429C37.3718 21.2469 38.2523 22.2885 38.2309 23.518C38.2148 24.4899 37.7745 25.2362 36.9369 25.7516C36.8886 25.7892 36.8456 25.8321 36.7973 25.8697C36.8027 25.8858 36.8081 25.9019 36.8134 25.918C36.8886 25.918 36.9584 25.918 37.0336 25.918C38.2738 25.918 39.5195 25.918 40.7597 25.918C41.3181 25.918 41.7799 26.2778 41.9302 26.8093C41.9517 26.8952 41.9732 26.9811 42 27.067ZM31.3852 30.8308C31.2993 30.8254 31.2295 30.8147 31.1597 30.8147C29.0121 30.8147 26.8591 30.8147 24.7114 30.8093C24.545 30.8093 24.4805 30.8415 24.4805 31.0295C24.4859 33.3704 24.4859 35.7167 24.4805 38.0576C24.4805 38.2456 24.5396 38.2778 24.7114 38.2778C26.8591 38.2724 29.0121 38.2724 31.1597 38.2778C31.3477 38.2778 31.3906 38.2187 31.3906 38.0415C31.3852 35.7113 31.3852 33.3811 31.3852 31.0509C31.3852 30.9865 31.3852 30.9167 31.3852 30.8308ZM39.498 30.8308C37.1893 30.8308 34.902 30.8308 32.5933 30.8308C32.5933 30.9113 32.5933 30.9704 32.5933 31.0348C32.5933 33.3758 32.5933 35.7221 32.5879 38.063C32.5879 38.2509 32.6523 38.2831 32.8188 38.2831C34.9664 38.2778 37.1195 38.2778 39.2671 38.2831C39.4604 38.2831 39.498 38.2241 39.498 38.0415C39.4926 35.7113 39.4926 33.3811 39.4926 31.0509C39.498 30.9865 39.498 30.9167 39.498 30.8308ZM27.2886 29.6227C28.5879 29.6227 29.8872 29.6227 31.1866 29.6227C31.3315 29.6227 31.3906 29.5959 31.3906 29.4348C31.3799 28.7207 31.3799 28.0066 31.3906 27.2925C31.3906 27.1261 31.3262 27.0993 31.1866 27.0993C28.5933 27.0993 26 27.1046 23.4067 27.0993C23.2403 27.0993 23.2027 27.1583 23.2081 27.314C23.2134 28.0066 23.2188 28.7046 23.2081 29.3972C23.2081 29.5691 23.251 29.6281 23.4336 29.6281C24.7168 29.6227 26.0054 29.6227 27.2886 29.6227ZM32.5987 27.1207C32.5987 27.2013 32.5987 27.2603 32.5987 27.3248C32.5987 28.0174 32.604 28.7154 32.5933 29.408C32.5933 29.5744 32.6362 29.6281 32.8081 29.6227C35.396 29.6174 37.9785 29.6174 40.5664 29.6227C40.7436 29.6227 40.7812 29.5637 40.7758 29.4026C40.7651 28.7207 40.7705 28.0389 40.7705 27.357C40.7705 27.0993 40.7705 27.0993 40.5235 27.0993C37.9624 27.0993 35.4013 27.0993 32.8403 27.0993C32.7705 27.1046 32.6953 27.1154 32.5987 27.1207ZM37.0443 23.4912C37.0067 23.3731 36.9584 23.2174 36.9101 23.0617C36.6953 22.4389 36.0081 22.0684 35.3638 22.2133C34.8913 22.3154 34.5852 22.6321 34.3436 23.0133C34.102 23.3892 33.9141 23.8026 33.6832 24.1892C33.4201 24.6295 33.2913 25.1019 33.2268 25.6013C33.2 25.8214 33.2859 25.918 33.506 25.918C33.6725 25.9127 33.8389 25.8966 34 25.859C34.8698 25.6442 35.6376 25.2308 36.357 24.7046C36.7436 24.4093 36.9638 24.0174 37.0443 23.4912ZM26.9933 23.518C26.9933 23.9261 27.1275 24.2966 27.455 24.5328C27.8846 24.855 28.3409 25.1449 28.8134 25.408C29.2859 25.6711 29.796 25.8536 30.3383 25.9073C30.7034 25.9449 30.8 25.8429 30.7409 25.4885C30.7302 25.408 30.7195 25.3221 30.7034 25.2415C30.6013 24.7529 30.4027 24.3019 30.1503 23.8778C29.898 23.4536 29.6403 23.0295 29.3396 22.6429C28.9906 22.1919 28.3946 22.063 27.8577 22.2617C27.3477 22.4496 26.9987 22.9597 26.9933 23.518Z" fill="white"/>
</g>
<defs>
<clipPath id="clip0">
<rect width="20" height="18.4698" fill="white" transform="translate(22 21)"/>
</clipPath>
</defs>
</svg>
