<svg width="64" height="56" viewBox="0 0 64 56" fill="none" xmlns="http://www.w3.org/2000/svg">
<path d="M0.601562 21.4935L31.9973 0.600586L63.3984 21.4936L51.4247 55.2426H12.5753L0.601562 21.4935Z" stroke="#D2202F"/>
<g clip-path="url(#clip0)">
<path d="M25.247 41.8356C24.9793 41.6835 24.6995 41.5497 24.4501 41.3733C24.0912 41.1239 24 40.7346 24 40.3149C24 39.0801 24 37.8453 24 36.6166C24 32.3222 24 28.0278 24.0061 23.7334C24.0061 23.5144 24.0304 23.2711 24.1217 23.0826C24.4197 22.4986 24.9063 22.1762 25.5815 22.1762C26.9805 22.1762 28.3735 22.1762 29.7725 22.1762C30.6423 22.1762 31.5122 22.1702 32.382 22.1823C32.5219 22.1823 32.5888 22.1337 32.6618 22.0181C33.337 20.8502 34.2981 19.9865 35.5511 19.4755C36.8041 18.9646 38.0998 18.8551 39.4197 19.2079C41.3601 19.7188 42.6922 20.9293 43.5073 22.7541C44.1156 24.1106 44.1642 25.5035 43.6655 26.866C43.0024 28.6908 41.7676 30.0169 39.8881 30.6556C38.6229 31.0874 37.3394 31.1118 36.056 30.6981C35.9161 30.6556 35.7701 30.613 35.6058 30.5643C35.399 30.9658 35.0158 31.0023 34.6022 31.0023C32.5827 30.9962 30.5572 31.0023 28.5377 30.9962C28.3796 30.9962 28.2092 30.9779 28.0572 30.9293C27.7226 30.8076 27.5341 30.4427 27.5888 30.102C27.6496 29.7431 27.9173 29.4633 28.2762 29.4512C29.0122 29.4329 29.7482 29.439 30.4842 29.439C31.5182 29.439 32.5523 29.439 33.5803 29.439C33.6411 29.439 33.6959 29.439 33.8054 29.439C33.7324 29.3539 33.6837 29.3052 33.635 29.2565C33.1241 28.7517 32.7105 28.1677 32.4124 27.5169C32.3516 27.3891 32.2847 27.3466 32.1448 27.3466C30.9343 27.3526 29.7238 27.3526 28.5134 27.3466C28.3552 27.3466 28.1849 27.3283 28.0328 27.2675C27.7105 27.1397 27.528 26.7809 27.5827 26.4524C27.6436 26.0935 27.9112 25.8137 28.2701 25.8015C28.8236 25.7833 29.3832 25.7894 29.9428 25.7894C30.5024 25.7894 31.056 25.7894 31.6156 25.7894C31.6886 25.7894 31.7616 25.7833 31.8041 25.7833C31.8346 25.102 31.8589 24.439 31.8893 23.7638C29.8333 23.7638 27.7409 23.7638 25.6241 23.7638C25.6241 29.2626 25.6241 34.7675 25.6241 40.2784C29.6387 40.2784 33.6472 40.2784 37.6922 40.2784C37.6922 40.1993 37.6922 40.1142 37.6922 40.029C37.6922 38.3319 37.6922 36.6409 37.6922 34.9439C37.6922 34.3478 38.1849 33.9645 38.7141 34.1409C39.0487 34.2504 39.2494 34.5363 39.2494 34.9317C39.2494 36.3429 39.2494 37.7541 39.2494 39.1653C39.2494 39.5363 39.2494 39.9074 39.2494 40.2784C39.2494 41.0752 38.8662 41.5923 38.0998 41.8173C38.0815 41.8234 38.0633 41.8417 38.045 41.8538C33.781 41.8356 29.517 41.8356 25.247 41.8356ZM37.899 29.4268C40.399 29.4086 42.3881 27.4195 42.3698 24.9743C42.3455 22.5047 40.3504 20.5522 37.8564 20.5704C35.3747 20.5887 33.3917 22.5838 33.4161 25.0534C33.4404 27.4743 35.4599 29.4451 37.899 29.4268Z" fill="#D2202F"/>
<path d="M31.6279 38.233C30.5573 38.233 29.4868 38.239 28.4162 38.233C27.8262 38.2269 27.4552 37.7768 27.6011 37.2536C27.6924 36.9434 27.8931 36.7427 28.2277 36.7001C28.3311 36.6879 28.4345 36.6758 28.5379 36.6758C30.6121 36.6758 32.6863 36.6758 34.7544 36.6758C34.9004 36.6758 35.0525 36.694 35.1924 36.7427C35.533 36.8643 35.7277 37.2354 35.6668 37.5882C35.5999 37.9653 35.2958 38.233 34.9004 38.239C33.8116 38.239 32.7228 38.233 31.6279 38.233Z" fill="#D2202F"/>
<path d="M31.6412 34.5891C30.6314 34.5891 29.6217 34.5891 28.612 34.5891C28.4964 34.5891 28.3747 34.5831 28.2592 34.5709C27.8699 34.5283 27.584 34.2059 27.584 33.8106C27.584 33.4213 27.8638 33.0989 28.2531 33.0441C28.3504 33.032 28.4477 33.0259 28.539 33.0259C30.6193 33.0259 32.6996 33.0259 34.7799 33.0259C35.0414 33.0259 35.2847 33.0685 35.4672 33.2692C35.6862 33.5125 35.7531 33.7923 35.6254 34.0964C35.4915 34.4188 35.2421 34.5831 34.8954 34.5891C34.3115 34.5952 33.7215 34.5891 33.1375 34.5891C32.6327 34.5891 32.14 34.5891 31.6412 34.5891Z" fill="#D2202F"/>
<path d="M39.2482 32.3709C39.2543 32.888 39.0718 33.1799 38.6886 33.2894C38.3115 33.3989 37.8918 33.2104 37.7579 32.8393C37.6424 32.523 37.6424 32.1945 37.764 31.8843C37.8918 31.5558 38.2446 31.3794 38.5974 31.4342C38.9441 31.4889 39.2056 31.7626 39.2421 32.1033C39.2543 32.1945 39.2482 32.2797 39.2482 32.3709Z" fill="#D2202F"/>
<path d="M37.1129 23.3791C37.1129 22.8681 37.1129 22.3572 37.1129 21.8401C37.1129 21.3413 37.4353 20.9946 37.8976 20.9946C38.3538 20.9946 38.6701 21.3353 38.6762 21.8401C38.6762 22.6674 38.6823 23.4885 38.6762 24.3158C38.6762 24.4618 38.7127 24.5409 38.8526 24.6017C39.181 24.7477 39.5034 24.918 39.838 25.0701C40.2334 25.2525 40.4219 25.5141 40.4037 25.8669C40.3672 26.4387 39.8258 26.7975 39.3027 26.5603C38.6944 26.2866 38.1044 25.9764 37.5144 25.6662C37.2407 25.5202 37.1251 25.2647 37.1251 24.9606C37.1129 24.4314 37.1129 23.9022 37.1129 23.3791Z" fill="#D2202F"/>
</g>
<defs>
<clipPath id="clip0">
<rect width="20" height="22.8345" fill="white" transform="translate(24 19)"/>
</clipPath>
</defs>
</svg>
