<svg width="19" height="20" viewBox="0 0 19 20" fill="none" xmlns="http://www.w3.org/2000/svg">
<path d="M15.9029 11.0097C14.9709 10.233 13.6505 9.92233 11.8641 10C13.0291 9.2233 13.8058 7.90291 13.8058 6.34951C13.8058 3.94175 11.8641 2 9.45631 2C6.97087 2 5.02913 3.94175 5.02913 6.34951C5.02913 7.74757 5.72816 9.06796 6.81553 9.84466C5.49515 9.68932 2.85437 9.84466 2 12.6408V12.7184V17.6893C2 17.8447 2.15534 18 2.31068 18H16.6796C16.8349 18 16.9903 17.8447 16.9903 17.6893V12.9515C16.9903 12.9515 16.9126 11.8641 15.9029 11.0097ZM5.65049 6.34951C5.65049 4.25243 7.35922 2.62136 9.37864 2.62136C11.4757 2.62136 13.1068 4.3301 13.1068 6.34951C13.1068 8.4466 11.3981 10.0777 9.37864 10.0777C7.28155 10.1553 5.65049 8.4466 5.65049 6.34951ZM9.30097 11.4757H9.61165L10.0777 12.4854L9.45631 13.7282L8.99029 12.7961L9.30097 11.4757ZM8.91262 10.7767C8.91262 10.6214 8.99029 10.5437 9.14563 10.5437H9.76699C9.92233 10.5437 10 10.6214 10 10.7767C10 10.932 9.92233 11.0097 9.76699 11.0097H9.14563C8.99029 11.0097 8.91262 10.932 8.91262 10.7767ZM10.0777 11.3981C10.3107 11.3204 10.466 11.0874 10.466 10.7767C10.466 10.699 10.466 10.699 10.466 10.6214C10.699 10.5437 11.0097 10.466 11.2427 10.3883L10.3883 11.9417L10.0777 11.3981ZM8.83495 11.3981L8.60194 12.1748L7.74757 10.466C7.98058 10.5437 8.21359 10.6214 8.4466 10.699C8.4466 10.7767 8.4466 10.7767 8.4466 10.8544C8.4466 11.0874 8.60194 11.3204 8.83495 11.3981ZM16.3689 17.4563H2.62136V12.8738C3.39806 10.233 6.19417 10.466 7.04854 10.6214C7.12621 10.6214 7.12621 10.6214 7.20388 10.6214L9.2233 14.5825C9.30097 14.6602 9.37864 14.7379 9.53398 14.7379C9.68932 14.7379 9.76699 14.6602 9.84466 14.5825L11.8641 10.6214C13.4951 10.466 14.7379 10.7767 15.5146 11.4757C16.2913 12.0971 16.3689 12.9515 16.3689 13.0291V17.4563Z" fill="#282525"/>
</svg>
