<svg width="38" height="38" viewBox="0 0 38 38" fill="none" xmlns="http://www.w3.org/2000/svg">
<path d="M19 35.625C28.1817 35.625 35.625 28.1817 35.625 19C35.625 9.81827 28.1817 2.375 19 2.375C9.81827 2.375 2.375 9.81827 2.375 19C2.375 28.1817 9.81827 35.625 19 35.625Z" fill="white" stroke="#C52127" stroke-width="3" stroke-miterlimit="10"/>
<path d="M19.0002 32.7727C26.586 32.7727 32.7356 26.6231 32.7356 19.0373C32.7356 11.4515 26.586 5.302 19.0002 5.302C11.4144 5.302 5.26489 11.4515 5.26489 19.0373C5.26489 26.6231 11.4144 32.7727 19.0002 32.7727Z" fill="#C52127"/>
<path d="M15.3747 23.1805L18.4839 19.0374L13.8267 12.8208H11.2297L15.8926 19.0374L11.2297 25.2539H19.0168L17.4463 23.1805H15.3747Z" fill="white"/>
<path d="M22.6271 14.8942L19.5179 19.0374L24.1751 25.2539H26.7721L22.1092 19.0374L26.7721 12.8208H19.0112L20.5593 14.8942H22.6271Z" fill="white"/>
</svg>
