<svg width="19" height="20" viewBox="0 0 19 20" fill="none" xmlns="http://www.w3.org/2000/svg">
<path d="M2.001 3.5C2.001 3.36739 2.05368 3.24021 2.14745 3.14645C2.24121 3.05268 2.36839 3 2.501 3H2.939C3.666 3 4.084 3.473 4.326 3.945C4.491 4.268 4.61 4.662 4.709 5.004H15.004C15.1585 5.00405 15.3109 5.0399 15.4493 5.10874C15.5876 5.17759 15.7081 5.27755 15.8013 5.40079C15.8945 5.52403 15.9579 5.6672 15.9865 5.81905C16.015 5.9709 16.008 6.12731 15.966 6.276L14.47 11.551C14.351 11.9695 14.0988 12.3378 13.7516 12.6C13.4043 12.8622 12.9811 13.0041 12.546 13.004H7.467C7.02828 13.0041 6.60167 12.86 6.25292 12.5939C5.90416 12.3277 5.6526 11.9542 5.537 11.531L4.895 9.176C4.89132 9.16544 4.88798 9.15477 4.885 9.144L3.854 5.647L3.754 5.31C3.654 4.964 3.566 4.658 3.434 4.401C3.275 4.091 3.129 4.001 2.938 4.001H2.5C2.36739 4.001 2.24021 3.94832 2.14645 3.85455C2.05268 3.76079 2 3.63361 2 3.501L2.001 3.5ZM5.849 8.874L6.502 11.27C6.55989 11.4815 6.68571 11.6681 6.86008 11.8011C7.03445 11.9341 7.2477 12.0061 7.467 12.006H12.547C12.7644 12.0058 12.9759 11.9347 13.1493 11.8035C13.3227 11.6723 13.4486 11.4882 13.508 11.279L15.004 6.004H5.004L5.849 8.873V8.874Z" fill="#282525"/>
<path d="M9.004 15.504C9.004 15.9019 8.84596 16.2834 8.56466 16.5647C8.28335 16.846 7.90182 17.004 7.504 17.004C7.10617 17.004 6.72464 16.846 6.44334 16.5647C6.16203 16.2834 6.004 15.9019 6.004 15.504C6.004 15.1062 6.16203 14.7247 6.44334 14.4434C6.72464 14.1621 7.10617 14.004 7.504 14.004C7.90182 14.004 8.28335 14.1621 8.56466 14.4434C8.84596 14.7247 9.004 15.1062 9.004 15.504V15.504ZM8.004 15.504C8.004 15.3714 7.95132 15.2442 7.85755 15.1505C7.76378 15.0567 7.63661 15.004 7.504 15.004C7.37139 15.004 7.24421 15.0567 7.15044 15.1505C7.05668 15.2442 7.004 15.3714 7.004 15.504C7.004 15.6366 7.05668 15.7638 7.15044 15.8576C7.24421 15.9514 7.37139 16.004 7.504 16.004C7.63661 16.004 7.76378 15.9514 7.85755 15.8576C7.95132 15.7638 8.004 15.6366 8.004 15.504Z" fill="#282525"/>
<path d="M14.004 15.504C14.004 15.9019 13.846 16.2834 13.5647 16.5647C13.2834 16.846 12.9018 17.004 12.504 17.004C12.1062 17.004 11.7246 16.846 11.4433 16.5647C11.162 16.2834 11.004 15.9019 11.004 15.504C11.004 15.1062 11.162 14.7247 11.4433 14.4434C11.7246 14.1621 12.1062 14.004 12.504 14.004C12.9018 14.004 13.2834 14.1621 13.5647 14.4434C13.846 14.7247 14.004 15.1062 14.004 15.504V15.504ZM13.004 15.504C13.004 15.3714 12.9513 15.2442 12.8576 15.1505C12.7638 15.0567 12.6366 15.004 12.504 15.004C12.3714 15.004 12.2442 15.0567 12.1504 15.1505C12.0567 15.2442 12.004 15.3714 12.004 15.504C12.004 15.6366 12.0567 15.7638 12.1504 15.8576C12.2442 15.9514 12.3714 16.004 12.504 16.004C12.6366 16.004 12.7638 15.9514 12.8576 15.8576C12.9513 15.7638 13.004 15.6366 13.004 15.504Z" fill="#282525"/>
</svg>
