<svg width="65" height="59" viewBox="0 0 65 59" fill="none" xmlns="http://www.w3.org/2000/svg">
<g clip-path="url(#clip0)">
<path d="M21.17 29.76C20.5 29.07 19.84 28.46 19.25 27.77C16.11 24.09 14.79 19.82 15.26 15.01C15.58 11.71 16.84 8.76999 18.92 6.18999C19.35 5.65999 19.84 5.55999 20.3 5.91999C20.77 6.27999 20.81 6.82999 20.39 7.35999C18.05 10.3 16.86 13.65 17.06 17.4C17.33 22.55 19.7 26.56 24 29.42C24.39 29.68 24.77 29.79 25.25 29.79C29.78 29.77 34.3 29.79 38.83 29.77C39.15 29.77 39.52 29.67 39.78 29.5C43.92 26.83 46.33 23.06 46.81 18.14C47.54 10.74 42.47 3.76999 35.23 2.21999C31.75 1.46999 28.4 1.87999 25.2 3.47999C25.11 3.52999 25.02 3.57999 24.92 3.61999C24.37 3.87999 23.91 3.73999 23.64 3.24999C23.37 2.73999 23.52 2.22999 24.05 1.94999C25.64 1.09999 27.32 0.509986 29.1 0.229986C34.15 -0.550014 38.7 0.599986 42.66 3.85999C45.89 6.51999 47.9 9.94999 48.52 14.1C49.4 20.02 47.61 25.05 43.29 29.19C43.11 29.36 42.92 29.53 42.65 29.79C42.98 29.79 43.2 29.79 43.41 29.79C45.58 29.79 47.75 29.74 49.92 29.8C53.61 29.9 56.29 31.61 57.83 35C57.96 35.28 58.1 35.38 58.4 35.37C59.35 35.33 60.28 35.36 61.18 35.75C62.86 36.47 64.02 38.18 64.02 40C64.02 42.96 64.03 45.92 64.02 48.88C64.02 51.3 61.92 53.35 59.29 53.36C58.36 53.37 57.91 53.62 57.45 54.47C55.91 57.32 53.43 58.86 50.17 58.91C46.3 58.97 42.42 58.92 38.55 58.92C37.09 58.92 35.95 58.28 35.02 57.18C34.66 56.76 34.29 56.35 33.86 56.01C32.68 55.07 31.27 55.13 30.16 56.15C29.67 56.6 29.25 57.13 28.78 57.61C28 58.42 27.04 58.9 25.9 58.9C21.75 58.92 17.6 59 13.46 58.87C10.03 58.76 7.59995 56.94 6.12995 53.85C5.94995 53.47 5.77995 53.35 5.36995 53.37C4.05995 53.43 2.78995 53.25 1.71995 52.39C0.639954 51.51 -0.0200463 50.43 -4.62744e-05 48.95C0.0399537 45.89 0.0299537 42.82 -4.62744e-05 39.76C-0.0200463 37.95 0.919954 36.76 2.38995 35.9C3.32995 35.35 4.38995 35.3 5.43995 35.36C5.77995 35.38 5.92995 35.26 6.07995 34.95C7.61995 31.61 10.27 29.9 13.92 29.8C16.17 29.74 18.43 29.8 20.68 29.8C20.85 29.79 20.99 29.78 21.17 29.76ZM14.32 57.04C14.59 57.04 14.75 57.04 14.92 57.04C18.45 57.04 21.97 57.03 25.5 57.05C26.37 57.05 27.05 56.74 27.64 56.11C28.2 55.51 28.78 54.91 29.42 54.4C30.97 53.17 33.17 53.13 34.74 54.33C35.47 54.89 36.1 55.59 36.76 56.24C37.2 56.68 37.71 56.98 38.34 57.02C38.85 57.05 39.37 57.06 39.89 57.03C40.06 57.02 40.28 56.9 40.39 56.77C40.94 56.09 41.45 55.38 41.98 54.68C45.22 50.41 48.45 46.13 51.7 41.86C53.07 40.07 54.48 38.3 55.86 36.52C56.15 36.14 56.24 35.77 55.96 35.28C54.7 33.05 52.84 31.75 50.27 31.7C46.56 31.63 42.84 31.67 39.12 31.68C38.94 31.68 38.73 31.81 38.6 31.94C35.52 35.11 32.45 38.28 29.37 41.46C25.35 45.61 21.34 49.77 17.33 53.93C16.34 54.94 15.37 55.95 14.32 57.04ZM36.22 31.68C33.35 31.68 30.61 31.69 27.86 31.67C27.44 31.67 27.17 31.81 26.88 32.1C23.58 35.42 20.27 38.72 16.96 42.03C13.88 45.11 10.8 48.18 7.73995 51.27C7.57995 51.43 7.41995 51.76 7.46995 51.96C8.05995 54.24 9.44995 55.84 11.69 56.65C11.83 56.7 12.09 56.62 12.2 56.51C13.14 55.58 14.05 54.62 14.97 53.67C20.32 48.13 25.67 42.59 31.03 37.05C32.73 35.28 34.44 33.52 36.22 31.68ZM56.7 38.51C56.66 38.5 56.62 38.5 56.58 38.49C51.92 44.65 47.26 50.81 42.55 57.04C45.1 57.04 47.55 57.04 49.99 57.04C50.2 57.04 50.41 57.06 50.61 57.02C51.13 56.93 51.67 56.86 52.17 56.69C54.84 55.75 56.49 53.49 56.64 50.61C56.68 49.88 57.04 49.5 57.67 49.54C58.26 49.58 58.57 49.99 58.53 50.71C58.52 50.95 58.5 51.18 58.48 51.41C60.61 51.8 62.18 50.52 62.18 48.43C62.18 45.76 62.18 43.1 62.18 40.43C62.18 38.17 60.78 36.95 58.51 37.26C58.51 38.26 58.51 39.27 58.51 40.27C58.51 40.94 58.49 41.61 58.49 42.28C58.5 43.09 58.54 43.89 58.54 44.7C58.54 45.08 58.39 45.4 58 45.57C57.3 45.87 56.65 45.43 56.65 44.62C56.65 43.28 56.69 41.95 56.71 40.61C56.71 39.91 56.7 39.21 56.7 38.51ZM7.25995 48.98C13.05 43.19 18.8 37.44 24.54 31.7C24.53 31.7 24.51 31.67 24.48 31.67C20.99 31.67 17.5 31.67 14.01 31.68C13.62 31.68 13.21 31.68 12.83 31.75C9.52995 32.39 7.34995 34.87 7.27995 38.24C7.19995 41.8 7.25995 45.36 7.25995 48.98ZM5.41995 37.21C5.15995 37.21 4.90995 37.2 4.65995 37.21C2.95995 37.25 1.75995 38.48 1.75995 40.17C1.75995 43.01 1.75995 45.84 1.74995 48.68C1.74995 50.54 3.66995 51.95 5.41995 51.38C5.41995 46.68 5.41995 41.98 5.41995 37.21Z" fill="#231F20"/>
<path d="M35.37 19.08C35.37 20.04 35.38 20.9 35.37 21.76C35.36 22.5 35.05 22.86 34.44 22.85C33.82 22.84 33.5 22.47 33.49 21.76C33.49 18.73 33.49 15.7 33.49 12.68C33.49 11.71 33.78 11.42 34.76 11.43C36.22 11.43 37.68 11.43 39.15 11.44C40.58 11.45 41.52 12.41 41.52 13.86C41.52 14.57 41.52 15.27 41.52 15.98C41.51 17.31 40.54 18.3 39.22 18.31C38.69 18.31 38.16 18.31 37.47 18.31C37.75 18.54 37.92 18.68 38.1 18.82C39.08 19.58 40.05 20.34 41.03 21.1C41.59 21.54 41.68 22.03 41.3 22.51C40.94 22.96 40.43 23.01 39.9 22.6C38.47 21.5 37.06 20.38 35.63 19.27C35.56 19.22 35.5 19.17 35.37 19.08ZM35.39 16.45C36.66 16.45 37.88 16.45 39.1 16.45C39.46 16.45 39.65 16.27 39.66 15.92C39.67 15.21 39.69 14.51 39.64 13.8C39.63 13.63 39.38 13.34 39.23 13.33C37.96 13.29 36.69 13.31 35.39 13.31C35.39 14.38 35.39 15.39 35.39 16.45Z" fill="#231F20"/>
<path d="M26.5399 19.59C26.6299 19.42 26.6999 19.29 26.7599 19.16C27.8099 16.83 28.8499 14.49 29.9299 12.17C30.0599 11.89 30.3399 11.62 30.6199 11.5C30.9899 11.35 31.3599 11.53 31.6199 11.85C31.8799 12.18 31.8199 12.52 31.6599 12.87C30.8999 14.54 30.1499 16.22 29.3899 17.89C28.7499 19.31 28.0999 20.74 27.4699 22.17C27.2899 22.58 27.0299 22.86 26.5499 22.87C26.0399 22.88 25.7799 22.6 25.5899 22.17C24.2299 19.07 22.8699 15.97 21.5099 12.88C21.2399 12.27 21.4099 11.77 21.9499 11.54C22.4999 11.31 22.9599 11.51 23.2299 12.12C24.3099 14.56 25.3799 16.99 26.4499 19.43C26.4599 19.46 26.4799 19.5 26.5399 19.59Z" fill="#231F20"/>
</g>
<defs>
<clipPath id="clip0">
<rect width="64.04" height="58.95" fill="white"/>
</clipPath>
</defs>
</svg>
