<svg width="107" height="106" viewBox="0 0 107 106" fill="none" xmlns="http://www.w3.org/2000/svg">
<g clip-path="url(#clip0)">
<path d="M40.61 70.83L52.71 54.98L34.35 32.08H24.39L42.74 55.5L23.75 78.94H53.14L47.26 70.83H40.61Z" fill="#CC1421"/>
<path d="M52.69 32.08L58.57 40.19H65.14L53.11 54.82L71.47 78.94H81.39L63.09 54.36L82.14 32.08H52.69Z" fill="#CC1421"/>
<path d="M53.3 98.11C27.44 98.11 7.93 78.71 7.93 53C7.93 27.31 27.44 7.94 53.3 7.94C79.17 7.94 98.67 27.31 98.67 53C98.68 78.71 79.17 98.11 53.3 98.11ZM53.3 0C23.91 0 0 23.77 0 53C0 82.22 23.91 106 53.3 106C82.69 106 106.6 82.23 106.6 53C106.61 23.77 82.7 0 53.3 0Z" fill="#CC1421"/>
</g>
<defs>
<clipPath id="clip0">
<rect width="106.61" height="105.99" fill="white"/>
</clipPath>
</defs>
</svg>
