<svg width="14" height="12" viewBox="0 0 14 12" fill="none" xmlns="http://www.w3.org/2000/svg">
<path d="M12.99 6.02C13 6.01 13.01 6 13.01 5.99C13.02 5.98 13.02 5.97 13.03 5.96C13.04 5.95 13.04 5.94 13.05 5.93C13.06 5.92 13.06 5.91 13.07 5.89C13.08 5.88 13.08 5.87 13.09 5.86C13.09 5.85 13.1 5.84 13.1 5.82C13.1 5.81 13.11 5.8 13.11 5.78C13.11 5.77 13.12 5.76 13.12 5.74C13.12 5.73 13.13 5.72 13.13 5.7C13.13 5.69 13.13 5.67 13.14 5.66C13.14 5.65 13.14 5.64 13.14 5.63C13.15 5.58 13.15 5.53 13.14 5.48C13.14 5.47 13.14 5.46 13.14 5.45C13.14 5.44 13.14 5.42 13.13 5.41C13.13 5.4 13.12 5.38 13.12 5.37C13.12 5.36 13.11 5.35 13.11 5.33C13.11 5.32 13.1 5.31 13.1 5.29C13.1 5.28 13.09 5.27 13.09 5.25C13.09 5.24 13.08 5.23 13.07 5.22C13.06 5.21 13.06 5.2 13.05 5.18C13.04 5.17 13.04 5.16 13.03 5.15C13.02 5.14 13.02 5.13 13.01 5.12C13.01 5.11 13 5.1 12.99 5.09C12.98 5.08 12.98 5.07 12.97 5.06C12.95 5.04 12.94 5.02 12.92 5L8.14 0.230005C7.84 -0.0699951 7.34 -0.0699951 7.04 0.230005C6.74 0.530005 6.74 1.03 7.04 1.33L10.49 4.78H0.78C0.35 4.78 0 5.13 0 5.56C0 5.99 0.35 6.34 0.78 6.34H10.49L7.04 9.79C6.74 10.09 6.74 10.59 7.04 10.89C7.19 11.04 7.39 11.12 7.59 11.12C7.79 11.12 7.99 11.04 8.14 10.89L12.92 6.11C12.94 6.09 12.96 6.07 12.97 6.05C12.98 6.04 12.98 6.03 12.99 6.02Z" fill="white"/>
</svg>
