<svg width="18" height="18" viewBox="0 0 18 18" fill="none" xmlns="http://www.w3.org/2000/svg">
<path opacity="0.8" fill-rule="evenodd" clip-rule="evenodd" d="M8.72218 5.96011C6.71799 5.96011 5.19524 7.75157 5.19524 9.82295C5.19524 11.8943 6.71799 13.6858 8.72218 13.6858C10.7264 13.6858 12.2491 11.8943 12.2491 9.82295C12.2491 7.74038 10.7264 5.96011 8.72218 5.96011ZM6.31491 9.82295C6.31491 8.24423 7.44577 7.07978 8.72218 7.07978C9.9986 7.07978 11.1295 8.24423 11.1295 9.82295C11.1295 11.3905 9.9986 12.5661 8.72218 12.5661C7.44577 12.5661 6.31491 11.3905 6.31491 9.82295ZM5.49755 4.3254L6.81876 2.11966H10.6368L11.958 4.3254C12.0588 4.49335 12.2379 4.59412 12.4395 4.59412H15.4066C15.6305 4.59412 15.8544 4.69489 16.0448 4.89643C16.2239 5.09797 16.3359 5.38908 16.3359 5.69139V14.7831C16.3359 15.0854 16.2239 15.3765 16.0448 15.578C15.8656 15.7796 15.6305 15.8803 15.4066 15.8803H2.04899C1.82505 15.8803 1.58992 15.7796 1.41078 15.578C1.23163 15.3653 1.11966 15.0854 1.11966 14.7831V5.69139C1.11966 5.37789 1.23163 5.09797 1.41078 4.89643C1.58992 4.69489 1.81386 4.59412 2.04899 4.59412H5.0161C5.20644 4.59412 5.39678 4.49335 5.49755 4.3254ZM6.49405 1C6.30371 1 6.11337 1.10077 6.0126 1.26872L4.70259 3.47446H2.04899C1.48915 3.47446 0.962911 3.72078 0.582225 4.14626C0.20154 4.57173 0 5.12036 0 5.69139V14.7831C0 15.3541 0.20154 15.9027 0.582225 16.3282C0.962911 16.7537 1.48915 17 2.04899 17H15.4066C15.9664 17 16.4927 16.7537 16.8733 16.3282C17.2428 15.9139 17.4556 15.3541 17.4556 14.7831V5.69139C17.4556 5.12036 17.254 4.57173 16.8733 4.14626C16.4927 3.72078 15.9664 3.47446 15.4066 3.47446H12.753L11.4318 1.26872C11.331 1.10077 11.1519 1 10.9503 1H6.49405Z" fill="#18191A"/>
</svg>
