<svg width="18" height="18" viewBox="0 0 18 18" fill="none" xmlns="http://www.w3.org/2000/svg">
<g clip-path="url(#clip0)">
<path d="M-9 0H27V18H-9V0Z" fill="#012169"/>
<path d="M-9 0V2.0124L22.9752 18H27V15.9876L-4.9752 0.0036H-9V0ZM27 0V2.0124L-4.9752 18H-9V15.9876L22.9752 0H27Z" fill="white"/>
<path d="M6.0012 0V18H11.9988V0H6.0012ZM-9 6.0012V11.9988H27V6.0012H-9Z" fill="white"/>
<path d="M-9 7.2V10.8H27V7.2H-9ZM7.2 0V18H10.8V0H7.2ZM-9 18L2.9988 11.9988H5.688L-6.318 18H-9ZM-9 0L2.9988 6.0012H0.3168L-9 1.3428V0ZM12.3156 6.0012L24.318 0H27L15.0012 6.0012H12.312H12.3156ZM27.0036 18L14.9976 11.9988H17.6796L27 16.6572V18H27.0036Z" fill="#C8102E"/>
</g>
<defs>
<clipPath id="clip0">
<path d="M0 9C0 4.02944 4.02944 0 9 0C13.9706 0 18 4.02944 18 9C18 13.9706 13.9706 18 9 18C4.02944 18 0 13.9706 0 9Z" fill="white"/>
</clipPath>
</defs>
</svg>
