<svg width="28" height="28" viewBox="0 0 28 28" fill="none" xmlns="http://www.w3.org/2000/svg">
<path d="M25.55 13.72C25.55 13.23 25.52 12.74 25.45 12.27L27.4 10.93L26.54 8.27001L24.18 8.34C23.71 7.48 23.13 6.69 22.46 5.98L23.25 3.75L21 2.1L19.13 3.54C18.26 3.12 17.32 2.82001 16.35 2.64001L15.68 0.380005H12.88L12.21 2.64001C11.23 2.82001 10.3 3.13 9.43 3.54L7.57 2.1L5.31 3.74001L6.1 5.97C5.43 6.68 4.85 7.47 4.38 8.33L2.02 8.26L1.16 10.92L3.11 12.26C3.05 12.74 3.01 13.22 3.01 13.71C3.01 14.21 3.05 14.69 3.11 15.17L1.16 16.51L2.02 19.17L4.39 19.1C4.86 19.96 5.44 20.75 6.11 21.45L5.31 23.69L7.57 25.33L9.45 23.88C10.32 24.29 11.25 24.6 12.22 24.78L12.89 27.06H15.69L16.36 24.78C17.33 24.6 18.26 24.3 19.13 23.88L21.01 25.33L23.27 23.69L22.47 21.45C23.14 20.75 23.72 19.96 24.19 19.1L26.56 19.17L27.42 16.51L25.47 15.17C25.52 14.7 25.55 14.21 25.55 13.72Z" stroke="#FCFAFC" stroke-width="0.75" stroke-miterlimit="10" stroke-linecap="round" stroke-linejoin="round"/>
<path d="M14.28 20.82C18.2012 20.82 21.38 17.6412 21.38 13.72C21.38 9.79877 18.2012 6.62 14.28 6.62C10.3588 6.62 7.18 9.79877 7.18 13.72C7.18 17.6412 10.3588 20.82 14.28 20.82Z" stroke="#FCFAFC" stroke-width="0.75" stroke-miterlimit="10" stroke-linecap="round" stroke-linejoin="round"/>
</svg>
