<svg width="27" height="25" viewBox="0 0 27 25" fill="none" xmlns="http://www.w3.org/2000/svg">
<path d="M8.11998 8.08H18.44C18.64 8.08 18.79 7.92 18.79 7.73C18.79 7.54 18.63 7.38 18.44 7.38H8.11998C7.91998 7.38 7.76998 7.54 7.76998 7.73C7.75998 7.93 7.91998 8.08 8.11998 8.08Z" fill="#282525"/>
<path d="M18.79 10.83C18.79 10.63 18.63 10.48 18.44 10.48H8.12C7.92 10.48 7.76999 10.64 7.76999 10.83C7.76999 11.02 7.93 11.18 8.12 11.18H18.44C18.63 11.18 18.79 11.02 18.79 10.83Z" fill="#282525"/>
<path d="M26.49 9.96L22.13 6.78V6.01C22.13 4.48 20.83 3.23 19.24 3.23H17.27L13.75 0.66C13.56 0.52 13.31 0.52 13.13 0.66L9.60999 3.23H7.64999C6.04999 3.23 4.76001 4.48 4.76001 6.01V6.78L0.399994 9.96C0.259994 10.06 0.179993 10.22 0.179993 10.39C0.179993 10.42 0.190002 10.45 0.190002 10.48C0.190002 10.5 0.179993 10.53 0.179993 10.55V23.71C0.179993 23.79 0.200011 23.86 0.230011 23.93C0.180011 24.05 0.159991 24.19 0.209991 24.32C0.279991 24.53 0.479991 24.68 0.709991 24.68H26.17C26.4 24.68 26.6 24.54 26.67 24.32C26.71 24.19 26.7 24.05 26.65 23.93C26.68 23.86 26.7 23.79 26.7 23.71V10.55C26.7 10.53 26.69 10.5 26.69 10.48C26.7 10.45 26.7 10.42 26.7 10.39C26.7 10.22 26.62 10.06 26.49 9.96ZM22.13 8.09L25.29 10.4L22.24 12.75L22.13 12.83V8.09ZM13.44 1.74L15.47 3.23H11.4L13.44 1.74ZM5.81 6.01C5.81 5.06 6.62999 4.28 7.64999 4.28H19.24C20.25 4.28 21.08 5.05 21.08 6.01V13.59L16.92 16.61C16.85 16.63 16.78 16.65 16.72 16.7L13.48 19.14L10.09 16.69L5.82001 13.59V6.01H5.81ZM4.76001 8.09V12.73L1.60999 10.39L4.76001 8.09ZM1.23999 11.59L8.88 17.13L1.23999 22.67V11.59ZM2.26001 23.62L9.79001 17.79L13.17 20.24C13.36 20.38 13.61 20.37 13.8 20.23L17.03 17.79L24.62 23.61H2.26001V23.62ZM25.65 22.67L18.01 17.13L25.65 11.59V22.67Z" fill="#282525"/>
</svg>
