<svg width="19" height="20" viewBox="0 0 19 20" fill="none" xmlns="http://www.w3.org/2000/svg">
<path d="M14.0684 3.20553C12.4184 2.80952 10.2403 3.27154 8.98627 4.98759C7.60022 3.13953 5.42215 2.74352 3.8381 3.13953C2.12204 3.60155 1 5.1196 1 7.03366C1 11.3898 8.45825 16.67 8.78826 16.934C8.85426 17 8.92027 17 9.05227 17C9.11827 17 9.18428 17 9.31628 16.934C9.64629 16.736 17.1045 11.4558 17.1045 7.03366C17.0385 5.1196 15.9165 3.66755 14.0684 3.20553ZM12.5504 13.0399C11.0983 14.4919 9.58029 15.614 9.05227 16.01C8.52425 15.614 7.0062 14.4919 5.55415 13.0399C3.11207 10.6638 1.85803 8.61772 1.85803 6.96766C1.85803 5.44961 2.71606 4.26157 4.16811 3.86556C4.49812 3.79955 4.82813 3.73355 5.15814 3.73355C6.41218 3.73355 7.86423 4.32757 8.78826 5.84562C8.85426 5.97763 8.98627 6.04363 9.11827 6.04363C9.25028 6.04363 9.38228 5.97763 9.44828 5.84562C10.4383 4.06356 12.4844 3.46954 14.0024 3.86556C15.4545 4.26157 16.3125 5.38361 16.3125 6.90166C16.2465 8.61772 14.9265 10.7298 12.5504 13.0399Z" fill="#282525"/>
</svg>
