<svg width="149" height="50" viewBox="0 0 149 50" fill="none" xmlns="http://www.w3.org/2000/svg">
<path d="M26.7647 32.5004L31.2654 26.5011L24.5212 17.4998H20.7578L27.5111 26.5011L20.7578 35.5024H32.039L29.7637 32.5004H26.7647Z" fill="white"/>
<path d="M37.2677 20.5017L32.767 26.5011L39.5112 35.5024H43.27L36.5168 26.5011L43.27 17.4998H32.0298L34.2733 20.5017H37.2677Z" fill="white"/>
<path d="M32.0117 4C20.4301 4 11.0056 13.4198 11.0056 25C11.0056 36.5802 20.4301 46 32.0117 46C43.5932 46 53.0178 36.5802 53.0178 25C53.0223 13.4198 43.5978 4 32.0117 4ZM32.0117 42.989C21.8181 42.989 14 35.193 14 25C14 14.8207 21.8181 6.9974 32.0117 6.9974C42.2053 6.9974 50.0234 14.8207 50.0234 25C50.0234 35.193 42.2098 42.989 32.0117 42.989Z" fill="white"/>
<path d="M61.696 29.562H58.283C58.0919 29.562 57.9189 29.6302 57.787 29.7576C57.6505 29.8895 57.5776 30.0623 57.5776 30.267V36.512C57.5776 36.653 57.6322 36.7803 57.7324 36.8804C57.8325 36.9805 57.9644 37.035 58.1146 37.035C58.2557 37.035 58.3831 36.9805 58.4832 36.8804C58.5833 36.7803 58.638 36.6439 58.638 36.4892V33.692H61.1408C61.2819 33.692 61.4093 33.6374 61.5095 33.5373C61.6096 33.4373 61.6642 33.3054 61.6642 33.1553C61.6642 33.0143 61.6096 32.8869 61.5095 32.7868C61.4093 32.6868 61.2728 32.6322 61.1181 32.6322H58.638V30.6081H61.7142C61.8599 30.6081 61.9918 30.5536 62.0874 30.458C62.1875 30.358 62.2376 30.2306 62.2376 30.0851C62.2376 29.9486 62.1875 29.8213 62.0919 29.7212C62.0282 29.653 61.9054 29.562 61.696 29.562Z" fill="white"/>
<path d="M66.9293 31.6406C66.7882 31.6406 66.6608 31.6998 66.5607 31.8089C66.4697 31.909 66.4196 32.0363 66.4196 32.1682V36.0617H65.0499C64.9497 36.0617 64.8542 36.0435 64.7632 36.0025C64.6721 35.9616 64.5948 35.907 64.5265 35.8343C64.4583 35.7615 64.4037 35.6705 64.3581 35.5614C64.3172 35.4522 64.2944 35.3294 64.2944 35.1975V32.1546C64.2944 32.0318 64.2489 31.9135 64.1579 31.8135C64.0624 31.7043 63.9349 31.6497 63.7939 31.6497C63.6528 31.6497 63.5299 31.7043 63.4298 31.8089C63.3342 31.909 63.2842 32.0272 63.2842 32.1591V35.202C63.2842 35.484 63.3297 35.7433 63.4207 35.9662C63.5117 36.1981 63.6437 36.3937 63.8075 36.5575C63.9713 36.7166 64.1625 36.8395 64.3718 36.9259C64.5811 37.0077 64.8041 37.0487 65.0408 37.0487H66.7655C66.9566 37.0487 67.1204 36.9805 67.2433 36.8486C67.3571 36.7212 67.4208 36.5666 67.4208 36.3983V32.1591C67.4208 32.0363 67.3753 31.9181 67.2843 31.818C67.1978 31.6998 67.0749 31.6406 66.9293 31.6406Z" fill="white"/>
<path d="M71.2843 31.6406H70.984C70.5107 31.6406 70.1148 31.727 69.7962 31.8999C69.7735 31.8589 69.7462 31.8226 69.7098 31.7907C69.6097 31.6952 69.4868 31.6406 69.3503 31.6406C69.2001 31.6406 69.0727 31.6952 68.9817 31.7998C68.8998 31.8953 68.8542 32.0136 68.8542 32.1455V36.5347C68.8542 36.6666 68.8998 36.7894 68.9862 36.8804C69.0499 36.9486 69.1682 37.0305 69.3503 37.0305C69.4822 37.0305 69.6051 36.9805 69.7007 36.894C69.8008 36.7985 69.8554 36.6757 69.8554 36.5347V33.7829C69.8554 33.4054 69.9464 33.1098 70.1239 32.9051C70.2968 32.7095 70.5835 32.614 70.9749 32.614H71.2934C71.4299 32.614 71.5528 32.564 71.6438 32.473C71.7348 32.382 71.7849 32.2592 71.7849 32.1228C71.7849 31.9818 71.7303 31.8589 71.6347 31.768C71.5483 31.6861 71.4254 31.6406 71.2843 31.6406Z" fill="white"/>
<path d="M76.8317 32.1319C76.6679 31.9727 76.4767 31.8499 76.2629 31.7634C76.0535 31.6816 75.8305 31.6406 75.603 31.6406H73.8783C73.6872 31.6406 73.5188 31.7134 73.4005 31.8499C73.2867 31.9772 73.2275 32.1364 73.2275 32.3047V36.5302C73.2275 36.6621 73.2776 36.7849 73.3686 36.8804C73.4642 36.9805 73.587 37.035 73.7281 37.035C73.8646 37.035 73.9875 36.985 74.0876 36.8849C74.1877 36.7849 74.2378 36.6575 74.2378 36.5074V32.614H75.6076C75.7077 32.614 75.7987 32.6322 75.8897 32.6731C75.9807 32.7141 76.0581 32.7686 76.1263 32.846C76.1946 32.9233 76.2538 33.0188 76.2947 33.128C76.3357 33.2371 76.3584 33.3599 76.3584 33.4918V36.5256C76.3584 36.6575 76.4039 36.7803 76.4949 36.8758C76.5905 36.9759 76.7134 37.0305 76.8545 37.0305C76.991 37.0305 77.1138 36.9805 77.214 36.8804C77.3095 36.7803 77.3641 36.6575 77.3641 36.5211V33.4873C77.3641 33.2007 77.3186 32.9369 77.2276 32.7095C77.1275 32.4912 77.0001 32.291 76.8317 32.1319Z" fill="white"/>
<path d="M79.3071 31.7271C79.1569 31.7271 79.0295 31.7816 78.9385 31.8862C78.852 31.9818 78.811 32.1 78.811 32.2319V36.5347C78.811 36.6666 78.8565 36.7894 78.943 36.8804C79.0067 36.9486 79.1205 37.0305 79.3071 37.0305C79.439 37.0305 79.5619 36.9805 79.6575 36.8895C79.7576 36.794 79.8122 36.6712 79.8122 36.5302V32.2274C79.8122 32.0909 79.7621 31.9681 79.662 31.8681C79.5619 31.768 79.4436 31.7271 79.3071 31.7271Z" fill="white"/>
<path d="M79.3253 30.0486C79.1388 30.0486 79.0251 30.1305 78.9614 30.1987C78.875 30.2942 78.825 30.417 78.825 30.5535V30.7354C78.825 30.8673 78.8704 30.9901 78.9569 31.0811C79.0205 31.1493 79.1342 31.2312 79.3207 31.2312C79.4526 31.2312 79.5754 31.1811 79.671 31.0902C79.771 30.9947 79.8256 30.8718 79.8256 30.7308V30.5489C79.8256 30.4034 79.771 30.276 79.671 30.1805C79.58 30.0986 79.4572 30.0486 79.3253 30.0486Z" fill="white"/>
<path d="M84.0808 32.7231C84.2219 32.7231 84.3493 32.6731 84.4449 32.5776C84.5404 32.482 84.5905 32.3592 84.5905 32.2228C84.5905 32.0909 84.5404 31.9681 84.4494 31.8726C84.3812 31.7998 84.2628 31.7179 84.0717 31.7179H83.0387V31.1767C83.0387 31.0402 82.9886 30.9174 82.8885 30.8173C82.7884 30.7218 82.6655 30.6672 82.529 30.6672C82.3879 30.6672 82.2651 30.7218 82.1695 30.8219C82.0785 30.9174 82.0284 31.0402 82.0284 31.1721V31.7134H81.7645C81.6234 31.7134 81.5006 31.7679 81.405 31.868C81.314 31.9635 81.2639 32.0863 81.2639 32.2182C81.2639 32.3547 81.314 32.4775 81.4095 32.573C81.5051 32.6685 81.628 32.7186 81.7645 32.7186H82.0284V35.1883C82.0284 35.7614 82.1559 36.2163 82.4107 36.5301C82.6792 36.8622 83.1161 37.0305 83.7213 37.0305H84.0763C84.2173 37.0305 84.3447 36.9804 84.4403 36.8849C84.5359 36.7894 84.5859 36.6666 84.5859 36.5301C84.5859 36.3982 84.5359 36.2754 84.4449 36.1799C84.3493 36.0798 84.2219 36.0253 84.0763 36.0253H83.7213C83.4528 36.0253 83.2753 35.9661 83.1889 35.8524C83.0842 35.716 83.0341 35.4885 83.0341 35.1838V32.714H84.0808V32.7231Z" fill="white"/>
<path d="M89.6599 31.6406C89.5188 31.6406 89.3914 31.6998 89.2913 31.8089C89.2002 31.909 89.1502 32.0363 89.1502 32.1682V36.0617H87.7804C87.6803 36.0617 87.5847 36.0435 87.4983 36.0025C87.4073 35.9616 87.3299 35.907 87.2616 35.8343C87.1934 35.7615 87.1388 35.6705 87.0933 35.5614C87.0523 35.4522 87.0295 35.3294 87.0295 35.1975V32.1546C87.0295 32.0318 86.984 31.9135 86.893 31.8135C86.7975 31.7043 86.67 31.6497 86.529 31.6497C86.3879 31.6497 86.265 31.7043 86.1649 31.8089C86.0693 31.909 86.0193 32.0272 86.0193 32.1591V35.202C86.0193 35.484 86.0648 35.7433 86.1558 35.9662C86.2468 36.1981 86.3788 36.3937 86.5426 36.5575C86.7064 36.7166 86.8976 36.8395 87.1069 36.9259C87.3162 37.0077 87.5392 37.0487 87.7759 37.0487H89.5006C89.6917 37.0487 89.8555 36.9805 89.9784 36.8486C90.0922 36.7212 90.1559 36.5666 90.1559 36.3983V32.1591C90.1559 32.0363 90.1104 31.9181 90.0194 31.818C89.9238 31.6998 89.8009 31.6406 89.6599 31.6406Z" fill="white"/>
<path d="M94.0287 31.6406H93.7284C93.2551 31.6406 92.8592 31.727 92.5406 31.8999C92.5179 31.8589 92.4906 31.8226 92.4542 31.7907C92.354 31.6952 92.2312 31.6406 92.0947 31.6406C91.9445 31.6406 91.8171 31.6952 91.7261 31.7998C91.6441 31.8953 91.5986 32.0136 91.5986 32.1455V36.5347C91.5986 36.6666 91.6441 36.7894 91.7306 36.8804C91.7943 36.9486 91.9126 37.0305 92.0947 37.0305C92.2266 37.0305 92.3495 36.9805 92.4451 36.894C92.5452 36.7985 92.5998 36.6757 92.5998 36.5347V33.7829C92.5998 33.4054 92.6908 33.1098 92.8728 32.9051C93.0458 32.7095 93.3279 32.614 93.7238 32.614H94.0424C94.1789 32.614 94.3018 32.564 94.3928 32.473C94.4838 32.382 94.5338 32.2592 94.5338 32.1228C94.5338 31.9818 94.4792 31.8589 94.3837 31.768C94.2926 31.6861 94.1698 31.6406 94.0287 31.6406Z" fill="white"/>
<path d="M99.2938 34.6564C99.4121 34.5381 99.4758 34.3835 99.4758 34.2061V33.7558C99.4758 33.0735 99.2938 32.5459 98.9297 32.182C98.5702 31.8227 98.0469 31.6362 97.378 31.6362C97.0913 31.6362 96.8228 31.6817 96.577 31.7772C96.3267 31.8727 96.1083 32.0137 95.9217 32.1911C95.7352 32.3731 95.585 32.6005 95.4803 32.8643C95.3757 33.1281 95.321 33.4238 95.321 33.7512V34.5017C95.321 34.902 95.3529 35.2568 95.4075 35.5524C95.4667 35.8708 95.5804 36.1437 95.7352 36.362C95.8944 36.5895 96.1174 36.7623 96.3859 36.8715C96.6407 36.9761 96.9638 37.0306 97.3416 37.0306H98.8342C98.9707 37.0306 99.0936 36.9806 99.1846 36.8896C99.2756 36.7987 99.3257 36.6759 99.3257 36.5394C99.3257 36.403 99.2756 36.2847 99.1846 36.1892C99.1209 36.1255 99.0071 36.0482 98.8251 36.0482H97.3507C97.1459 36.0482 96.9729 36.0163 96.8455 35.9618C96.7272 35.9072 96.6316 35.8299 96.5634 35.7207C96.486 35.6024 96.4269 35.4523 96.395 35.275C96.3677 35.1431 96.3495 34.993 96.3404 34.8292H98.8342C99.0162 34.8429 99.1709 34.7792 99.2938 34.6564ZM96.3268 33.865V33.7558C96.3268 33.3919 96.4178 33.1145 96.6043 32.9098C96.7864 32.7097 97.0367 32.6141 97.378 32.6141C97.7557 32.6141 98.0333 32.7051 98.2062 32.887C98.3791 33.0735 98.4701 33.3646 98.4701 33.7512V33.8604H96.3268V33.865Z" fill="white"/>
<path d="M64.8587 26.5783L62.6198 22.9168L60.4992 26.5783H57.5503L61.1681 21.0702L57.6049 16.0305H60.6038L62.7381 19.1871L64.6448 16.0396H67.621L64.2762 21.1247L67.8531 26.5783H64.8587Z" fill="white"/>
<path d="M77.5871 22.2802C77.5871 22.9852 77.5279 23.5583 77.4096 23.9949C77.2503 24.5544 76.9682 25.0411 76.5586 25.455C75.8259 26.2009 74.8612 26.5739 73.6644 26.5739C73.0819 26.5739 72.5449 26.492 72.0534 26.3237C71.4982 26.1327 71.0431 25.8461 70.6882 25.4686C70.2513 25.0092 69.9601 24.518 69.8145 23.9949C69.7508 23.7584 69.7052 23.4946 69.6779 23.199C69.6597 22.9624 69.6506 22.6577 69.6506 22.2847V16.0261H72.2946V22.2802C72.2946 22.5531 72.3082 22.7896 72.3356 22.9852C72.372 23.2353 72.4357 23.4491 72.5176 23.622C72.7269 24.045 73.1001 24.2542 73.6371 24.2542C74.1922 24.2542 74.5654 24.0495 74.7565 23.6356C74.8339 23.4673 74.8885 23.2581 74.9203 23.0079C74.9386 22.826 74.9477 22.5849 74.9477 22.2847V16.0261H77.5916V22.2802H77.5871Z" fill="white"/>
<path d="M86.4154 26.5557L85.9103 25.0592H82.3198L81.7737 26.5557H78.9341L83.0843 16.0488H85.1685L89.2869 26.5557H86.4154ZM84.1492 19.4283H84.1082L83.0434 22.9624H85.2141L84.1492 19.4283Z" fill="white"/>
<path d="M97.2324 26.5647L93.337 20.2833L93.3324 26.5647H90.8022V16.0442H93.0821L97.0822 22.7213L97.1095 22.694L97.1141 16.0442H99.5259V26.5647H97.2324Z" fill="white"/>
<path d="M110.134 26.5782V22.4437H106.748V26.5782H104.109V16.0623H106.748V20.124H110.134V16.0623H112.778V26.5782H110.134Z" fill="white"/>
<path d="M124.309 25.0499C123.271 26.0506 122.006 26.5555 120.514 26.5555C119.062 26.5555 117.815 26.0642 116.778 25.0772C115.717 24.0811 115.185 22.8622 115.185 21.4203C115.185 20.6516 115.317 19.933 115.581 19.2553C115.717 18.896 115.94 18.5139 116.241 18.1182C117.292 16.7309 118.721 16.0396 120.527 16.0396C122.015 16.0396 123.276 16.5444 124.314 17.5496C125.356 18.5594 125.879 19.8102 125.879 21.293C125.874 22.7848 125.351 24.0357 124.309 25.0499ZM122.539 19.2234C122.006 18.6185 121.342 18.3138 120.541 18.3138C119.731 18.3138 119.062 18.6094 118.534 19.1961C118.024 19.7601 117.774 20.4515 117.774 21.2702C117.774 22.1026 118.029 22.8076 118.543 23.3807C119.076 23.9811 119.749 24.2813 120.568 24.2813C121.356 24.2813 122.015 23.9765 122.539 23.3716C123.039 22.7985 123.29 22.1071 123.29 21.3066C123.285 20.4924 123.035 19.7965 122.539 19.2234Z" fill="white"/>
<path d="M134.184 26.5783L133.679 25.0819H130.089L129.543 26.5783H126.703L130.853 16.0579H132.937L137.056 26.5783H134.184ZM131.918 19.4555H131.877L130.812 22.9896H132.983L131.918 19.4555Z" fill="white"/>
<path d="M85.8285 13.9202L83.9445 13.4153H83.94H83.9354H83.9309L82.0469 13.9202L82.4974 15.5985L83.9354 15.2119L85.378 15.5985L85.8285 13.9202Z" fill="white"/>
<path d="M118.64 13.4094L118.41 15.1318L121.916 15.5976L122.145 13.8752L118.64 13.4094Z" fill="white"/>
</svg>
