<svg width="277" height="93" viewBox="0 0 277 93" fill="none" xmlns="http://www.w3.org/2000/svg">
<path d="M34.63 62.66L44.52 49.47L29.7 29.68H21.43L36.27 49.47L21.43 69.26H46.22L41.22 62.66H34.63Z" fill="#CC2027"/>
<path d="M57.71 36.28L47.82 49.47L62.64 69.26H70.9L56.06 49.47L70.9 29.68H46.2L51.13 36.28H57.71Z" fill="#CC2027"/>
<path d="M46.16 0C20.71 0 0 20.71 0 46.17C0 71.63 20.71 92.34 46.16 92.34C71.61 92.34 92.32 71.63 92.32 46.17C92.33 20.71 71.62 0 46.16 0ZM46.16 85.72C23.76 85.72 6.58 68.58 6.58 46.17C6.58 23.79 23.76 6.59 46.16 6.59C68.56 6.59 85.74 23.79 85.74 46.17C85.74 68.58 68.57 85.72 46.16 85.72Z" fill="#CC2027"/>
<path d="M111.39 56.2H103.89C103.47 56.2 103.09 56.35 102.8 56.63C102.5 56.92 102.34 57.3 102.34 57.75V71.48C102.34 71.79 102.46 72.07 102.68 72.29C102.9 72.51 103.19 72.63 103.52 72.63C103.83 72.63 104.11 72.51 104.33 72.29C104.55 72.07 104.67 71.77 104.67 71.43V65.28H110.17C110.48 65.28 110.76 65.16 110.98 64.94C111.2 64.72 111.32 64.43 111.32 64.1C111.32 63.79 111.2 63.51 110.98 63.29C110.76 63.07 110.46 62.95 110.12 62.95H104.67V58.5H111.43C111.75 58.5 112.04 58.38 112.25 58.17C112.47 57.95 112.58 57.67 112.58 57.35C112.58 57.05 112.47 56.77 112.26 56.55C112.12 56.4 111.85 56.2 111.39 56.2Z" fill="#606060"/>
<path d="M122.89 60.77C122.58 60.77 122.3 60.9 122.08 61.14C121.88 61.36 121.77 61.64 121.77 61.93V70.49H118.76C118.54 70.49 118.33 70.45 118.13 70.36C117.93 70.27 117.76 70.15 117.61 69.99C117.46 69.83 117.34 69.63 117.24 69.39C117.15 69.15 117.1 68.88 117.1 68.59V61.9C117.1 61.63 117 61.37 116.8 61.15C116.59 60.91 116.31 60.79 116 60.79C115.69 60.79 115.42 60.91 115.2 61.14C114.99 61.36 114.88 61.62 114.88 61.91V68.6C114.88 69.22 114.98 69.79 115.18 70.28C115.38 70.79 115.67 71.22 116.03 71.58C116.39 71.93 116.81 72.2 117.27 72.39C117.73 72.57 118.22 72.66 118.74 72.66H122.53C122.95 72.66 123.31 72.51 123.58 72.22C123.83 71.94 123.97 71.6 123.97 71.23V61.91C123.97 61.64 123.87 61.38 123.67 61.16C123.48 60.9 123.21 60.77 122.89 60.77Z" fill="#606060"/>
<path d="M132.46 60.77H131.8C130.76 60.77 129.89 60.96 129.19 61.34C129.14 61.25 129.08 61.17 129 61.1C128.78 60.89 128.51 60.77 128.21 60.77C127.88 60.77 127.6 60.89 127.4 61.12C127.22 61.33 127.12 61.59 127.12 61.88V71.53C127.12 71.82 127.22 72.09 127.41 72.29C127.55 72.44 127.81 72.62 128.21 72.62C128.5 72.62 128.77 72.51 128.98 72.32C129.2 72.11 129.32 71.84 129.32 71.53V65.48C129.32 64.65 129.52 64 129.91 63.55C130.29 63.12 130.92 62.91 131.78 62.91H132.48C132.78 62.91 133.05 62.8 133.25 62.6C133.45 62.4 133.56 62.13 133.56 61.83C133.56 61.52 133.44 61.25 133.23 61.05C133.04 60.87 132.77 60.77 132.46 60.77Z" fill="#606060"/>
<path d="M144.65 61.85C144.29 61.5 143.87 61.23 143.4 61.04C142.94 60.86 142.45 60.77 141.95 60.77H138.16C137.74 60.77 137.37 60.93 137.11 61.23C136.86 61.51 136.73 61.86 136.73 62.23V71.52C136.73 71.81 136.84 72.08 137.04 72.29C137.25 72.51 137.52 72.63 137.83 72.63C138.13 72.63 138.4 72.52 138.62 72.3C138.84 72.08 138.95 71.8 138.95 71.47V62.91H141.96C142.18 62.91 142.38 62.95 142.58 63.04C142.78 63.13 142.95 63.25 143.1 63.42C143.25 63.59 143.38 63.8 143.47 64.04C143.56 64.28 143.61 64.55 143.61 64.84V71.51C143.61 71.8 143.71 72.07 143.91 72.28C144.12 72.5 144.39 72.62 144.7 72.62C145 72.62 145.27 72.51 145.49 72.29C145.7 72.07 145.82 71.8 145.82 71.5V64.83C145.82 64.2 145.72 63.62 145.52 63.12C145.3 62.64 145.02 62.2 144.65 61.85Z" fill="#606060"/>
<path d="M150.09 60.96C149.76 60.96 149.48 61.08 149.28 61.31C149.09 61.52 149 61.78 149 62.07V71.53C149 71.82 149.1 72.09 149.29 72.29C149.43 72.44 149.68 72.62 150.09 72.62C150.38 72.62 150.65 72.51 150.86 72.31C151.08 72.1 151.2 71.83 151.2 71.52V62.06C151.2 61.76 151.09 61.49 150.87 61.27C150.65 61.05 150.39 60.96 150.09 60.96Z" fill="#606060"/>
<path d="M150.13 57.27C149.72 57.27 149.47 57.45 149.33 57.6C149.14 57.81 149.03 58.08 149.03 58.38V58.78C149.03 59.07 149.13 59.34 149.32 59.54C149.46 59.69 149.71 59.87 150.12 59.87C150.41 59.87 150.68 59.76 150.89 59.56C151.11 59.35 151.23 59.08 151.23 58.77V58.37C151.23 58.05 151.11 57.77 150.89 57.56C150.69 57.38 150.42 57.27 150.13 57.27Z" fill="#CC2027"/>
<path d="M160.58 63.15C160.89 63.15 161.17 63.04 161.38 62.83C161.59 62.62 161.7 62.35 161.7 62.05C161.7 61.76 161.59 61.49 161.39 61.28C161.24 61.12 160.98 60.94 160.56 60.94H158.29V59.75C158.29 59.45 158.18 59.18 157.96 58.96C157.74 58.75 157.47 58.63 157.17 58.63C156.86 58.63 156.59 58.75 156.38 58.97C156.18 59.18 156.07 59.45 156.07 59.74V60.93H155.49C155.18 60.93 154.91 61.05 154.7 61.27C154.5 61.48 154.39 61.75 154.39 62.04C154.39 62.34 154.5 62.61 154.71 62.82C154.92 63.03 155.19 63.14 155.49 63.14H156.07V68.57C156.07 69.83 156.35 70.83 156.91 71.52C157.5 72.25 158.46 72.62 159.79 72.62H160.57C160.88 72.62 161.16 72.51 161.37 72.3C161.58 72.09 161.69 71.82 161.69 71.52C161.69 71.23 161.58 70.96 161.38 70.75C161.17 70.53 160.89 70.41 160.57 70.41H159.79C159.2 70.41 158.81 70.28 158.62 70.03C158.39 69.73 158.28 69.23 158.28 68.56V63.13H160.58V63.15Z" fill="#606060"/>
<path d="M172.84 60.77C172.53 60.77 172.25 60.9 172.03 61.14C171.83 61.36 171.72 61.64 171.72 61.93V70.49H168.71C168.49 70.49 168.28 70.45 168.09 70.36C167.89 70.27 167.72 70.15 167.57 69.99C167.42 69.83 167.3 69.63 167.2 69.39C167.11 69.15 167.06 68.88 167.06 68.59V61.9C167.06 61.63 166.96 61.37 166.76 61.15C166.55 60.91 166.27 60.79 165.96 60.79C165.65 60.79 165.38 60.91 165.16 61.14C164.95 61.36 164.84 61.62 164.84 61.91V68.6C164.84 69.22 164.94 69.79 165.14 70.28C165.34 70.79 165.63 71.22 165.99 71.58C166.35 71.93 166.77 72.2 167.23 72.39C167.69 72.57 168.18 72.66 168.7 72.66H172.49C172.91 72.66 173.27 72.51 173.54 72.22C173.79 71.94 173.93 71.6 173.93 71.23V61.91C173.93 61.64 173.83 61.38 173.63 61.16C173.42 60.9 173.15 60.77 172.84 60.77Z" fill="#606060"/>
<path d="M182.44 60.77H181.78C180.74 60.77 179.87 60.96 179.17 61.34C179.12 61.25 179.06 61.17 178.98 61.1C178.76 60.89 178.49 60.77 178.19 60.77C177.86 60.77 177.58 60.89 177.38 61.12C177.2 61.33 177.1 61.59 177.1 61.88V71.53C177.1 71.82 177.2 72.09 177.39 72.29C177.53 72.44 177.79 72.62 178.19 72.62C178.48 72.62 178.75 72.51 178.96 72.32C179.18 72.11 179.3 71.84 179.3 71.53V65.48C179.3 64.65 179.5 64 179.9 63.55C180.28 63.12 180.9 62.91 181.77 62.91H182.47C182.77 62.91 183.04 62.8 183.24 62.6C183.44 62.4 183.55 62.13 183.55 61.83C183.55 61.52 183.43 61.25 183.22 61.05C183.02 60.87 182.75 60.77 182.44 60.77Z" fill="#606060"/>
<path d="M194.01 67.4C194.27 67.14 194.41 66.8 194.41 66.41V65.42C194.41 63.92 194.01 62.76 193.21 61.96C192.42 61.17 191.27 60.76 189.8 60.76C189.17 60.76 188.58 60.86 188.04 61.07C187.49 61.28 187.01 61.59 186.6 61.98C186.19 62.38 185.86 62.88 185.63 63.46C185.4 64.04 185.28 64.69 185.28 65.41V67.06C185.28 67.94 185.35 68.72 185.47 69.37C185.6 70.07 185.85 70.67 186.19 71.15C186.54 71.65 187.03 72.03 187.62 72.27C188.18 72.5 188.89 72.62 189.72 72.62H193C193.3 72.62 193.57 72.51 193.77 72.31C193.97 72.11 194.08 71.84 194.08 71.54C194.08 71.24 193.97 70.98 193.77 70.77C193.63 70.63 193.38 70.46 192.98 70.46H189.74C189.29 70.46 188.91 70.39 188.63 70.27C188.37 70.15 188.16 69.98 188.01 69.74C187.84 69.48 187.71 69.15 187.64 68.76C187.58 68.47 187.54 68.14 187.52 67.78H193C193.4 67.81 193.74 67.67 194.01 67.4ZM187.49 65.66V65.42C187.49 64.62 187.69 64.01 188.1 63.56C188.5 63.12 189.05 62.91 189.8 62.91C190.63 62.91 191.24 63.11 191.62 63.51C192 63.92 192.2 64.56 192.2 65.41V65.65H187.49V65.66Z" fill="#606060"/>
<path d="M118.34 49.64L113.42 41.59L108.76 49.64H102.28L110.23 37.53L102.4 26.45H108.99L113.68 33.39L117.87 26.47H124.41L117.06 37.65L124.92 49.64H118.34Z" fill="#CC2027"/>
<path d="M146.31 40.19C146.31 41.74 146.18 43 145.92 43.96C145.57 45.19 144.95 46.26 144.05 47.17C142.44 48.81 140.32 49.63 137.69 49.63C136.41 49.63 135.23 49.45 134.15 49.08C132.93 48.66 131.93 48.03 131.15 47.2C130.19 46.19 129.55 45.11 129.23 43.96C129.09 43.44 128.99 42.86 128.93 42.21C128.89 41.69 128.87 41.02 128.87 40.2V26.44H134.68V40.19C134.68 40.79 134.71 41.31 134.77 41.74C134.85 42.29 134.99 42.76 135.17 43.14C135.63 44.07 136.45 44.53 137.63 44.53C138.85 44.53 139.67 44.08 140.09 43.17C140.26 42.8 140.38 42.34 140.45 41.79C140.49 41.39 140.51 40.86 140.51 40.2V26.44H146.32V40.19H146.31Z" fill="#CC2027"/>
<path d="M165.71 49.59L164.6 46.3H156.71L155.51 49.59H149.27L158.39 26.49H162.97L172.02 49.59H165.71ZM160.73 33.92H160.64L158.3 41.69H163.07L160.73 33.92Z" fill="#CC2027"/>
<path d="M189.48 49.61L180.92 35.8L180.91 49.61H175.35V26.48H180.36L189.15 41.16L189.21 41.1L189.22 26.48H194.52V49.61H189.48Z" fill="#CC2027"/>
<path d="M217.83 49.64V40.55H210.39V49.64H204.59V26.52H210.39V35.45H217.83V26.52H223.64V49.64H217.83Z" fill="#CC2027"/>
<path d="M248.98 46.28C246.7 48.48 243.92 49.59 240.64 49.59C237.45 49.59 234.71 48.51 232.43 46.34C230.1 44.15 228.93 41.47 228.93 38.3C228.93 36.61 229.22 35.03 229.8 33.54C230.1 32.75 230.59 31.91 231.25 31.04C233.56 27.99 236.7 26.47 240.67 26.47C243.94 26.47 246.71 27.58 248.99 29.79C251.28 32.01 252.43 34.76 252.43 38.02C252.42 41.3 251.27 44.05 248.98 46.28ZM245.09 33.47C243.92 32.14 242.46 31.47 240.7 31.47C238.92 31.47 237.45 32.12 236.29 33.41C235.17 34.65 234.62 36.17 234.62 37.97C234.62 39.8 235.18 41.35 236.31 42.61C237.48 43.93 238.96 44.59 240.76 44.59C242.49 44.59 243.94 43.92 245.09 42.59C246.19 41.33 246.74 39.81 246.74 38.05C246.73 36.26 246.18 34.73 245.09 33.47Z" fill="#CC2027"/>
<path d="M270.68 49.64L269.57 46.35H261.68L260.48 49.64H254.24L263.36 26.51H267.94L276.99 49.64H270.68ZM265.7 33.98H265.61L263.27 41.75H268.04L265.7 33.98Z" fill="#CC2027"/>
<path d="M164.42 21.81L160.28 20.7H160.27H160.26H160.25L156.11 21.81L157.1 25.5L160.26 24.65L163.43 25.5L164.42 21.81Z" fill="#CC2027"/>
<path d="M236.522 20.6871L236.018 24.4739L243.721 25.498L244.224 21.7112L236.522 20.6871Z" fill="#CC2027"/>
</svg>
