<svg width="64" height="56" viewBox="0 0 64 56" fill="none" xmlns="http://www.w3.org/2000/svg">
<path d="M0.601562 21.4935L31.9973 0.600586L63.3984 21.4936L51.4247 55.2426H12.5753L0.601562 21.4935Z" stroke="#D2202F"/>
<path d="M27.49 26.12C28.01 26.12 28.54 26.11 29.06 26.12C30.28 26.14 30.84 26.69 30.84 27.92C30.85 29.98 30.84 32.04 30.84 34.1C30.84 34.59 30.7 35 30.14 35.07C29.71 35.12 29.41 34.71 29.41 34.08C29.4 32.18 29.41 30.28 29.41 28.38C29.41 28.14 29.41 27.9 29.41 27.55C28.75 27.55 28.14 27.55 27.52 27.55C26.36 27.55 26 27.19 26 26.04C26 25.86 26 25.68 26 25.49C26.01 24.59 26.39 24.19 27.29 24.06C28.07 23.95 28.86 23.89 29.61 23.67C30.35 23.45 31.05 23.05 31.76 22.73C32.27 22.5 32.76 22.18 33.3 22.05C34.3 21.8 35.29 22.48 35.34 23.51C35.41 25.42 35.4 27.34 35.4 29.26C35.41 31.64 35.4 34.03 35.4 36.41C35.4 36.61 35.4 36.81 35.39 37.02C35.34 38.38 34.52 39.18 33.15 39.19C31.65 39.2 30.16 39.22 28.66 39.18C28.04 39.16 28.04 39.49 28.04 39.93C28.04 40.39 28.07 40.69 28.67 40.68C31.14 40.65 33.6 40.66 36.07 40.68C36.56 40.68 36.72 40.51 36.69 40.04C36.67 39.78 36.62 39.47 36.73 39.27C36.88 39.01 37.17 38.69 37.42 38.67C37.62 38.65 38.03 39.02 38.05 39.24C38.1 39.89 38.1 40.59 37.94 41.21C37.74 41.94 37.06 42.21 36.36 42.21C33.71 42.23 31.06 42.24 28.42 42.2C27.28 42.18 26.84 41.72 26.68 40.59C26.63 40.21 26.6 39.82 26.63 39.44C26.72 38.33 27.33 37.76 28.44 37.75C29.98 37.74 31.51 37.75 33.05 37.75C33.8 37.75 34 37.56 34 36.83C34.01 32.67 34.01 28.51 34.01 24.34C34.01 23.34 33.64 23.11 32.81 23.72C31.62 24.61 30.33 25.2 28.87 25.42C28.51 25.49 28.14 25.48 27.79 25.56C27.62 25.6 27.49 25.79 27.35 25.91C27.39 25.98 27.44 26.05 27.49 26.12Z" fill="#D2202F"/>
</svg>
