<svg width="19" height="20" viewBox="0 0 19 20" fill="none" xmlns="http://www.w3.org/2000/svg">
<path d="M6.57496 7.32889H12.5398C12.6556 7.32889 12.7714 7.21307 12.7714 7.09724C12.7714 6.98142 12.6556 6.8656 12.5398 6.8656H6.57496C6.45914 6.92351 6.40123 7.03933 6.40123 7.15516C6.40123 7.27098 6.45914 7.32889 6.57496 7.32889Z" fill="#282525"/>
<path d="M12.7715 8.95039C12.7715 8.83457 12.6556 8.71875 12.5398 8.71875H6.57497C6.45914 8.71875 6.34332 8.83457 6.34332 8.95039C6.34332 9.06622 6.45914 9.18204 6.57497 9.18204H12.5398C12.6556 9.12413 12.7715 9.06622 12.7715 8.95039Z" fill="#282525"/>
<path d="M17.2306 8.42916L14.6825 6.57601V6.17063C14.6825 5.30196 13.9297 4.54912 13.0031 4.54912H11.8449L9.81799 3.04343C9.70217 2.98552 9.58635 2.98552 9.47053 3.04343L7.44364 4.54912H6.28542C5.35884 4.54912 4.606 5.24405 4.606 6.17063V6.63392L2.11582 8.42916C2.05791 8.48707 2 8.6029 2 8.66081V8.71872C2 8.71872 2 8.71872 2 8.77663V16.4209C2 16.4788 2 16.5367 2.05791 16.5367C2 16.5946 2 16.6525 2 16.7684C2.05791 16.8842 2.17373 17 2.28956 17H17.0569C17.1727 17 17.2885 16.9421 17.3464 16.7684C17.3464 16.7104 17.3464 16.5946 17.3464 16.5367C17.3464 16.4788 17.4043 16.4788 17.4043 16.4209V8.77663C17.4043 8.77663 17.4043 8.77663 17.4043 8.71872V8.66081C17.3464 8.6029 17.2885 8.48707 17.2306 8.42916ZM14.6825 7.32885L16.5357 8.66081L14.7983 9.99276L14.7404 10.0507V7.32885H14.6825ZM9.70217 3.68046L10.8604 4.54912H8.48604L9.70217 3.68046ZM5.24302 6.17063C5.24302 5.59152 5.70631 5.18614 6.28542 5.18614H13.0031C13.5822 5.18614 14.0455 5.64943 14.0455 6.17063V10.514L11.6132 12.2513C11.5553 12.2513 11.5553 12.2513 11.4974 12.3092L9.64426 13.6991L7.67528 12.2513L5.24302 10.514V6.17063ZM4.66391 7.32885V9.99276L2.81075 8.66081L4.66391 7.32885ZM2.63702 9.35574L7.03826 12.5408L2.63702 15.726V9.35574V9.35574ZM3.21613 16.363L7.55946 13.0041L9.52844 14.394C9.64426 14.4519 9.76008 14.4519 9.8759 14.394L11.7291 13.0041L16.1303 16.363H3.21613ZM16.7673 15.7839L12.3661 12.5988L16.7673 9.41365V15.7839Z" fill="#282525"/>
</svg>
