<svg width="26" height="26" viewBox="0 0 26 26" fill="none" xmlns="http://www.w3.org/2000/svg">
<g clip-path="url(#clip0)">
<path d="M0.3 11.49C3.92 11.48 7.54 11.48 11.16 11.49C11.42 11.49 11.5 11.43 11.5 11.16C11.49 9.36 11.49 7.55 11.49 5.75C11.49 3.94 11.49 2.12 11.5 0.31C11.5 0.09 11.46 0 11.21 0C8.41 0.01 5.61 0 2.81 0.01C1.28 0.02 0.01 1.3 0.01 2.83C0 5.62 0.01 8.41 0 11.2C0 11.44 0.06 11.49 0.3 11.49ZM2.16 2.98C2.16 2.43 2.44 2.16 2.99 2.16C5.01 2.16 7.02 2.17 9.04 2.15C9.31 2.15 9.35 2.25 9.34 2.48C9.33 3.58 9.34 4.67 9.34 5.77C9.34 6.86 9.33 7.94 9.34 9.03C9.34 9.25 9.31 9.34 9.05 9.34C6.86 9.33 4.66 9.33 2.47 9.34C2.22 9.34 2.15 9.28 2.15 9.03C2.16 7.01 2.16 5 2.16 2.98Z" fill="#D2202F"/>
<path d="M14.7 11.5C16.49 11.49 18.29 11.49 20.08 11.49C21.91 11.49 23.73 11.49 25.56 11.5C25.78 11.5 25.84 11.44 25.84 11.22C25.83 8.43 25.84 5.64 25.83 2.85C25.82 1.28 24.55 0.02 22.98 0.01C20.2 0 17.42 0.01 14.64 0C14.41 0 14.34 0.05 14.34 0.29C14.35 3.91 14.35 7.53 14.34 11.15C14.34 11.44 14.43 11.5 14.7 11.5ZM16.78 2.15C18.82 2.16 20.86 2.16 22.9 2.16C23.39 2.16 23.68 2.44 23.68 2.93C23.69 4.98 23.68 7.03 23.69 9.08C23.69 9.28 23.64 9.35 23.43 9.35C21.21 9.34 18.99 9.34 16.78 9.35C16.55 9.35 16.5 9.26 16.51 9.06C16.52 7.95 16.51 6.84 16.51 5.73C16.51 4.64 16.52 3.56 16.51 2.47C16.49 2.24 16.52 2.15 16.78 2.15Z" fill="#D2202F"/>
<path d="M11.15 14.3401C9.34999 14.3501 7.53999 14.3501 5.73999 14.3501C3.91999 14.3501 2.10999 14.3501 0.28999 14.3401C0.0599902 14.3401 -0.0100098 14.4001 -0.0100098 14.6301C-9.76585e-06 17.4201 -0.0100098 20.2101 -9.76585e-06 23.0001C-9.76585e-06 24.5501 1.27999 25.8201 2.82999 25.8201C5.61999 25.8301 8.40999 25.8201 11.2 25.8301C11.41 25.8301 11.49 25.7901 11.49 25.5601C11.48 21.9301 11.48 18.3001 11.49 14.6701C11.5 14.4001 11.41 14.3401 11.15 14.3401ZM9.04999 23.6801C7.01999 23.6701 4.98999 23.6801 2.96999 23.6701C2.42999 23.6701 2.15999 23.4001 2.15999 22.8601C2.15999 20.8301 2.15999 18.8101 2.14999 16.7801C2.14999 16.5401 2.21999 16.4801 2.44999 16.4901C3.54999 16.5001 4.64999 16.5001 5.73999 16.5001C6.83999 16.5001 7.93999 16.5101 9.02999 16.4901C9.25999 16.4901 9.32999 16.5501 9.32999 16.7901C9.31999 18.9901 9.31999 21.1801 9.32999 23.3801C9.33999 23.6001 9.28999 23.6801 9.04999 23.6801Z" fill="#D2202F"/>
<path d="M21.53 16.2099C21.51 15.6799 21.51 15.1599 21.53 14.6299C21.54 14.3899 21.46 14.3299 21.23 14.3399C20.14 14.3499 19.06 14.3499 17.97 14.3499C16.86 14.3499 15.75 14.3499 14.64 14.3499C14.45 14.3499 14.33 14.3499 14.33 14.6099C14.34 15.8899 14.34 17.1599 14.33 18.4399C14.33 18.6199 14.4 18.6699 14.57 18.6599C15.13 18.6499 15.69 18.6499 16.25 18.6599C16.44 18.6599 16.5 18.5999 16.49 18.4099C16.48 17.8999 16.5 17.3799 16.48 16.8699C16.47 16.5699 16.56 16.4999 16.85 16.4999C18.31 16.5199 19.76 16.4999 21.22 16.5099C21.46 16.4999 21.54 16.4499 21.53 16.2099Z" fill="#D2202F"/>
<path d="M25.83 21.66C25.84 21.5 25.72 21.52 25.63 21.52C25.05 21.52 24.47 21.52 23.88 21.51C23.71 21.51 23.67 21.56 23.68 21.72C23.69 22.09 23.68 22.46 23.68 22.83C23.68 23.41 23.42 23.66 22.83 23.67C21.53 23.67 20.23 23.67 18.93 23.67C18.72 23.67 18.63 23.71 18.64 23.94C18.66 24.49 18.65 25.04 18.64 25.59C18.64 25.78 18.7 25.84 18.89 25.83C19.61 25.82 20.32 25.83 21.04 25.83C21.68 25.83 22.32 25.83 22.96 25.83C24.29 25.83 25.45 24.92 25.75 23.64C25.9 22.99 25.8 22.32 25.83 21.66Z" fill="#D2202F"/>
<path d="M23.93 18.6599C24.48 18.6499 25.03 18.6499 25.58 18.6599C25.76 18.6599 25.83 18.6299 25.83 18.4199C25.82 17.1399 25.82 15.8699 25.83 14.5899C25.83 14.3999 25.77 14.3399 25.58 14.3399C25.04 14.3499 24.5 14.3599 23.97 14.3399C23.74 14.3299 23.66 14.3899 23.67 14.6299C23.69 15.2499 23.68 15.8599 23.68 16.4799C23.68 17.1199 23.69 17.7599 23.68 18.3999C23.67 18.6099 23.73 18.6599 23.93 18.6599Z" fill="#D2202F"/>
<path d="M16.22 21.5201C15.67 21.5301 15.12 21.5301 14.57 21.5201C14.4 21.5201 14.34 21.5601 14.34 21.7401C14.35 23.0301 14.35 24.3201 14.34 25.6001C14.34 25.7801 14.41 25.8301 14.57 25.8201C15.13 25.8101 15.69 25.8101 16.25 25.8201C16.44 25.8201 16.5 25.7701 16.5 25.5801C16.49 24.9401 16.5 24.3001 16.5 23.6601C16.5 23.0301 16.49 22.4101 16.51 21.7801C16.51 21.5701 16.43 21.5101 16.22 21.5201Z" fill="#D2202F"/>
<path d="M18.87 21.5299C19.27 21.5199 19.68 21.5299 20.08 21.5299C20.48 21.5299 20.89 21.5199 21.29 21.5299C21.45 21.5299 21.53 21.5099 21.53 21.3199C21.52 20.4999 21.52 19.6899 21.53 18.8699C21.53 18.6799 21.46 18.6499 21.29 18.6499C20.48 18.6599 19.68 18.6599 18.87 18.6499C18.69 18.6499 18.64 18.7199 18.64 18.8899C18.65 19.6999 18.65 20.4999 18.64 21.3099C18.64 21.4799 18.7 21.5299 18.87 21.5299Z" fill="#D2202F"/>
<path d="M4.31005 6.96989C4.31005 7.11989 4.34005 7.18989 4.51005 7.18989C5.33005 7.17989 6.15005 7.17989 6.96005 7.18989C7.14005 7.18989 7.19005 7.12989 7.19005 6.95989C7.18005 6.14989 7.18005 5.34989 7.19005 4.53989C7.19005 4.36989 7.14005 4.29989 6.96005 4.30989C6.56005 4.31989 6.15005 4.30989 5.75005 4.30989C5.35005 4.30989 4.94005 4.31989 4.54005 4.30989C4.35005 4.29989 4.30005 4.35989 4.30005 4.54989C4.31005 5.35989 4.31005 6.15989 4.31005 6.96989Z" fill="#D2202F"/>
<path d="M18.65 6.97007C18.65 7.13007 18.71 7.18007 18.86 7.18007C19.68 7.17007 20.49 7.17007 21.31 7.18007C21.5 7.18007 21.53 7.10007 21.52 6.94007C21.51 6.54007 21.52 6.13007 21.52 5.73007C21.52 5.33007 21.52 4.92007 21.52 4.52007C21.52 4.38007 21.51 4.29007 21.33 4.30007C20.5 4.31007 19.67 4.31007 18.85 4.30007C18.68 4.30007 18.64 4.36007 18.64 4.52007C18.65 5.34007 18.65 6.16007 18.65 6.97007Z" fill="#D2202F"/>
<path d="M6.95005 18.6399C6.14005 18.6499 5.34005 18.6499 4.53005 18.6399C4.35005 18.6399 4.30005 18.6999 4.31005 18.8699C4.32005 19.6799 4.32005 20.4799 4.31005 21.2899C4.31005 21.4499 4.34005 21.5299 4.53005 21.5199C5.35005 21.5099 6.16005 21.5099 6.98005 21.5199C7.17005 21.5199 7.20005 21.4399 7.19005 21.2799C7.18005 20.8799 7.19005 20.4699 7.19005 20.0699C7.19005 19.6799 7.18005 19.2899 7.19005 18.8899C7.19005 18.7199 7.15005 18.6399 6.95005 18.6399Z" fill="#D2202F"/>
</g>
<defs>
<clipPath id="clip0">
<rect width="25.84" height="25.83" fill="white"/>
</clipPath>
</defs>
</svg>
