<svg width="64" height="56" viewBox="0 0 64 56" fill="none" xmlns="http://www.w3.org/2000/svg">
<path d="M0.601562 21.4935L31.9973 0.600586L63.3984 21.4936L51.4247 55.2426H12.5753L0.601562 21.4935Z" fill="#D2202F" stroke="#D2202F"/>
<g clip-path="url(#clip0)">
<path d="M31.1027 43.1538L31.0643 42.1387V41.3869C31.0643 40.6407 31.0643 39.9 31.0643 39.1538C30.1096 39.066 29.1549 38.841 28.2111 38.4789C27.2728 38.1222 26.3839 37.6064 25.5664 36.948C24.7653 36.3005 24.0739 35.5324 23.5088 34.6709C22.8778 33.6942 22.4443 32.6133 22.1864 31.3568C21.956 30.2265 21.9779 29.1291 22.0273 28.295C22.1151 26.8245 22.5211 25.4199 23.2454 24.1249C23.8215 23.0934 24.6007 22.1496 25.5609 21.3211C26.554 20.4597 27.7008 19.8287 28.9573 19.4336C29.742 19.1867 30.4004 19.066 31.0259 19.044L31.4429 19.0276C31.9313 19.0056 32.4306 18.9837 32.9409 19.0111C33.9724 19.0715 35.004 19.3129 36.0026 19.7354C36.8256 20.0811 37.5719 20.5365 38.2248 21.0797C39.2344 21.9192 40.0081 22.8245 40.6007 23.8396C41.1658 24.8108 41.5389 25.771 41.742 26.7642C41.8352 27.2086 41.9011 27.6695 41.9395 28.1249C41.9724 28.4761 41.9779 28.8218 41.9834 29.1565L41.9889 29.4638C42.0163 30.7148 41.8572 31.9713 41.4896 33.3101C41.1 34.7367 40.5787 35.9055 39.8983 36.8712C39.5252 37.3979 39.1027 37.9466 38.5595 38.5886C38.2084 39.0056 37.8133 39.3952 37.4457 39.7518C36.5732 40.5968 35.613 41.3266 34.6034 41.9082C33.72 42.4185 32.8915 42.7806 32.0739 43.0221C31.9916 43.0495 31.9148 43.055 31.8654 43.055L31.1027 43.1538ZM32.4306 20.3719C32.1288 20.3719 31.827 20.3828 31.5088 20.3993L31.0808 20.4158C30.5815 20.4322 30.0383 20.542 29.3689 20.745C28.2934 21.0797 27.3167 21.6229 26.4662 22.3581C25.6158 23.0934 24.9518 23.889 24.4525 24.7944C23.8325 25.9082 23.4813 27.1099 23.4045 28.3773C23.3387 29.4857 23.3826 30.3197 23.5362 31.0824C23.7557 32.1688 24.1288 33.0961 24.6665 33.9247C25.1494 34.6654 25.742 35.3239 26.4333 35.8835C27.1357 36.4487 27.8983 36.8931 28.7049 37.2004C29.6651 37.568 30.6418 37.7765 31.602 37.8204C32.0245 37.8369 32.447 38.1332 32.4416 38.7367C32.4361 39.6201 32.4361 40.5035 32.4416 41.3924V41.4583C32.9189 41.2662 33.4127 41.0303 33.9285 40.7285C34.8448 40.2018 35.7118 39.5433 36.5019 38.7752C36.8641 38.424 37.2097 38.0838 37.5225 37.7107C38.0383 37.0961 38.4388 36.5804 38.79 36.0865C39.3881 35.2361 39.827 34.2429 40.1837 32.948C40.5129 31.7409 40.661 30.6105 40.6336 29.4967L40.6281 29.1784C40.6226 28.8657 40.6171 28.5529 40.5897 28.2457C40.5513 27.8396 40.4909 27.4336 40.4141 27.033C40.2385 26.188 39.9203 25.365 39.432 24.52C38.9217 23.6421 38.2468 22.8629 37.3634 22.1222C36.8147 21.6613 36.1837 21.2827 35.4868 20.9864C34.6199 20.6407 33.7475 20.4322 32.8695 20.3828C32.7214 20.3773 32.5787 20.3719 32.4306 20.3719ZM34.1645 32.5145C33.956 32.5145 33.7475 32.4377 33.5554 32.2841L33.4182 32.1743C33.2701 32.0536 33.1219 31.9384 32.9683 31.8232C32.7214 31.6311 32.5842 31.4062 32.5678 31.1483C32.5403 30.7587 32.7927 30.5008 32.8695 30.4185C32.9409 30.3472 33.0012 30.2813 33.0616 30.21C32.9464 30.2155 32.7982 30.2155 32.6391 30.1551C32.3538 30.0454 32.041 29.7546 32.0355 29.365C32.03 28.6736 32.03 27.9823 32.03 27.2909V26.5941C32.03 26.2923 32.1617 26.1003 32.2715 25.9905C32.3812 25.8808 32.5787 25.7491 32.886 25.7491H36.2879C36.6171 25.7491 36.8202 25.8918 36.9354 26.007C37.0506 26.1222 37.1878 26.3307 37.1878 26.649C37.1878 26.852 37.1878 27.055 37.1933 27.2635C37.1988 27.7299 37.2042 28.2073 37.1768 28.6901C37.1329 29.5186 36.7982 30.3033 36.1946 31.0221C35.7282 31.5763 35.1905 31.9878 34.7241 32.3225C34.5486 32.4487 34.3565 32.5145 34.1645 32.5145ZM34.1754 31.0221C34.1754 31.0276 34.1754 31.0276 34.1754 31.0221C34.5047 30.7752 34.8503 30.4843 35.1466 30.1332C35.5636 29.6448 35.7776 29.1455 35.8051 28.6133C35.827 28.1798 35.8215 27.7409 35.816 27.28C35.816 27.2251 35.816 27.1757 35.816 27.1208H33.4018V27.2909C33.4018 27.8067 33.4018 28.3225 33.4073 28.8328H34.8668L34.8833 29.5186L34.1974 29.5351L34.8833 29.5296L34.8887 29.6503L34.8503 29.8094C34.6967 30.3088 34.4333 30.7148 34.1754 31.0221ZM28.9573 32.509C28.6885 32.509 28.4855 32.3773 28.3647 32.2676C28.1837 32.103 27.9752 31.9439 27.7612 31.7848C27.5362 31.6201 27.41 31.4171 27.3826 31.1812C27.3551 30.9453 27.432 30.7203 27.613 30.5118C27.6953 30.413 27.7831 30.3088 27.8709 30.2045H27.8051C27.1576 30.2045 26.8284 29.8698 26.8284 29.2223C26.8284 28.3883 26.8284 27.5543 26.8284 26.7203C26.8284 26.0893 27.1686 25.7491 27.8051 25.7491H28.7543C29.5225 25.7491 30.2907 25.7491 31.0643 25.7436C31.3387 25.7326 31.5746 25.8259 31.7447 25.996C31.9148 26.1661 31.9971 26.3966 31.9916 26.6764C31.9806 27.2854 31.9806 27.9 31.9916 28.5145C32.0026 29.3101 31.7337 30.0838 31.185 30.8026C30.7132 31.4226 30.1425 31.9384 29.4896 32.3389C29.292 32.4651 29.1165 32.509 28.9573 32.509ZM28.9903 31.0056C28.9957 31.0111 29.0012 31.0166 29.0067 31.0221C29.4182 30.7313 29.7804 30.3856 30.0822 29.985C30.4443 29.5077 30.6144 29.0358 30.6089 28.5474C30.6034 28.0756 30.6034 27.6037 30.6034 27.1263C29.9834 27.1263 29.3634 27.1263 28.7433 27.1263H28.1946C28.1946 27.7079 28.1946 28.2731 28.1946 28.8383H30.1041L29.6706 29.804C29.6377 29.8808 29.6103 29.9466 29.5828 30.018C29.5115 30.1935 29.4347 30.3801 29.3195 30.5557C29.2207 30.7093 29.1055 30.8629 28.9903 31.0056Z" fill="white"/>
</g>
<defs>
<clipPath id="clip0">
<rect width="20" height="24.1536" fill="white" transform="translate(22 19)"/>
</clipPath>
</defs>
</svg>
