<svg width="64" height="56" viewBox="0 0 64 56" fill="none" xmlns="http://www.w3.org/2000/svg">
<path d="M0.601562 21.4935L31.9973 0.600586L63.3984 21.4936L51.4247 55.2426H12.5753L0.601562 21.4935Z" stroke="#D2202F"/>
<g clip-path="url(#clip0)">
<path d="M31.1029 43.1538L31.0644 42.1387V41.3869C31.0644 40.6407 31.0644 39.9 31.0644 39.1538C30.1097 39.066 29.155 38.841 28.2112 38.4789C27.273 38.1222 26.3841 37.6064 25.5665 36.948C24.7654 36.3005 24.0741 35.5324 23.5089 34.6709C22.8779 33.6942 22.4444 32.6133 22.1865 31.3568C21.9561 30.2265 21.978 29.1291 22.0274 28.295C22.1152 26.8245 22.5212 25.4199 23.2455 24.1249C23.8217 23.0934 24.6008 22.1496 25.561 21.3211C26.5542 20.4597 27.7009 19.8287 28.9575 19.4336C29.7421 19.1867 30.4005 19.066 31.026 19.044L31.443 19.0276C31.9314 19.0056 32.4307 18.9837 32.941 19.0111C33.9725 19.0715 35.0041 19.3129 36.0027 19.7354C36.8258 20.0811 37.572 20.5365 38.2249 21.0797C39.2345 21.9192 40.0082 22.8245 40.6008 23.8396C41.166 24.8108 41.5391 25.771 41.7421 26.7642C41.8354 27.2086 41.9012 27.6695 41.9396 28.1249C41.9725 28.4761 41.978 28.8218 41.9835 29.1565L41.989 29.4638C42.0164 30.7148 41.8573 31.9713 41.4897 33.3101C41.1001 34.7367 40.5788 35.9055 39.8985 36.8712C39.5254 37.3979 39.1029 37.9466 38.5596 38.5886C38.2085 39.0056 37.8134 39.3952 37.4458 39.7518C36.5734 40.5968 35.6131 41.3266 34.6035 41.9082C33.7201 42.4185 32.8916 42.7806 32.0741 43.0221C31.9917 43.0495 31.9149 43.055 31.8655 43.055L31.1029 43.1538ZM32.4307 20.3719C32.1289 20.3719 31.8271 20.3828 31.5089 20.3993L31.0809 20.4158C30.5816 20.4322 30.0384 20.542 29.369 20.745C28.2935 21.0797 27.3168 21.6229 26.4664 22.3581C25.6159 23.0934 24.952 23.889 24.4527 24.7944C23.8326 25.9082 23.4815 27.1099 23.4046 28.3773C23.3388 29.4857 23.3827 30.3197 23.5363 31.0824C23.7558 32.1688 24.1289 33.0961 24.6666 33.9247C25.1495 34.6654 25.7421 35.3239 26.4334 35.8835C27.1358 36.4487 27.8985 36.8931 28.7051 37.2004C29.6653 37.568 30.642 37.7765 31.6022 37.8204C32.0247 37.8369 32.4472 38.1332 32.4417 38.7367C32.4362 39.6201 32.4362 40.5035 32.4417 41.3924V41.4583C32.919 41.2662 33.4129 41.0303 33.9286 40.7285C34.845 40.2018 35.7119 39.5433 36.502 38.7752C36.8642 38.424 37.2099 38.0838 37.5226 37.7107C38.0384 37.0961 38.4389 36.5804 38.7901 36.0865C39.3882 35.2361 39.8271 34.2429 40.1838 32.948C40.513 31.7409 40.6612 30.6105 40.6337 29.4967L40.6282 29.1784C40.6227 28.8657 40.6173 28.5529 40.5898 28.2457C40.5514 27.8396 40.4911 27.4336 40.4142 27.033C40.2387 26.188 39.9204 25.365 39.4321 24.52C38.9218 23.6421 38.2469 22.8629 37.3635 22.1222C36.8148 21.6613 36.1838 21.2827 35.4869 20.9864C34.62 20.6407 33.7476 20.4322 32.8697 20.3828C32.7215 20.3773 32.5789 20.3719 32.4307 20.3719ZM34.1646 32.5145C33.9561 32.5145 33.7476 32.4377 33.5555 32.2841L33.4184 32.1743C33.2702 32.0536 33.1221 31.9384 32.9684 31.8232C32.7215 31.6311 32.5843 31.4062 32.5679 31.1483C32.5404 30.7587 32.7928 30.5008 32.8697 30.4185C32.941 30.3472 33.0013 30.2813 33.0617 30.21C32.9465 30.2155 32.7983 30.2155 32.6392 30.1551C32.3539 30.0454 32.0411 29.7546 32.0356 29.365C32.0302 28.6736 32.0302 27.9823 32.0302 27.2909V26.5941C32.0302 26.2923 32.1618 26.1003 32.2716 25.9905C32.3813 25.8808 32.5789 25.7491 32.8861 25.7491H36.288C36.6173 25.7491 36.8203 25.8918 36.9355 26.007C37.0507 26.1222 37.1879 26.3307 37.1879 26.649C37.1879 26.852 37.1879 27.055 37.1934 27.2635C37.1989 27.7299 37.2044 28.2073 37.1769 28.6901C37.133 29.5186 36.7983 30.3033 36.1948 31.0221C35.7284 31.5763 35.1906 31.9878 34.7243 32.3225C34.5487 32.4487 34.3566 32.5145 34.1646 32.5145ZM34.1756 31.0221C34.1756 31.0276 34.1756 31.0276 34.1756 31.0221C34.5048 30.7752 34.8505 30.4843 35.1468 30.1332C35.5638 29.6448 35.7778 29.1455 35.8052 28.6133C35.8271 28.1798 35.8216 27.7409 35.8162 27.28C35.8162 27.2251 35.8162 27.1757 35.8162 27.1208H33.4019V27.2909C33.4019 27.8067 33.4019 28.3225 33.4074 28.8328H34.8669L34.8834 29.5186L34.1975 29.5351L34.8834 29.5296L34.8889 29.6503L34.8505 29.8094C34.6968 30.3088 34.4334 30.7148 34.1756 31.0221ZM28.9575 32.509C28.6886 32.509 28.4856 32.3773 28.3649 32.2676C28.1838 32.103 27.9753 31.9439 27.7613 31.7848C27.5363 31.6201 27.4101 31.4171 27.3827 31.1812C27.3553 30.9453 27.4321 30.7203 27.6131 30.5118C27.6954 30.413 27.7832 30.3088 27.871 30.2045H27.8052C27.1577 30.2045 26.8285 29.8698 26.8285 29.2223C26.8285 28.3883 26.8285 27.5543 26.8285 26.7203C26.8285 26.0893 27.1687 25.7491 27.8052 25.7491H28.7544C29.5226 25.7491 30.2908 25.7491 31.0644 25.7436C31.3388 25.7326 31.5747 25.8259 31.7448 25.996C31.9149 26.1661 31.9972 26.3966 31.9917 26.6764C31.9808 27.2854 31.9808 27.9 31.9917 28.5145C32.0027 29.3101 31.7339 30.0838 31.1852 30.8026C30.7133 31.4226 30.1426 31.9384 29.4897 32.3389C29.2922 32.4651 29.1166 32.509 28.9575 32.509ZM28.9904 31.0056C28.9959 31.0111 29.0013 31.0166 29.0068 31.0221C29.4184 30.7313 29.7805 30.3856 30.0823 29.985C30.4444 29.5077 30.6145 29.0358 30.609 28.5474C30.6035 28.0756 30.6035 27.6037 30.6035 27.1263C29.9835 27.1263 29.3635 27.1263 28.7435 27.1263H28.1948C28.1948 27.7079 28.1948 28.2731 28.1948 28.8383H30.1042L29.6708 29.804C29.6378 29.8808 29.6104 29.9466 29.583 30.018C29.5116 30.1935 29.4348 30.3801 29.3196 30.5557C29.2208 30.7093 29.1056 30.8629 28.9904 31.0056Z" fill="#D2202F"/>
</g>
<defs>
<clipPath id="clip0">
<rect width="20" height="24.1536" fill="white" transform="translate(22 19)"/>
</clipPath>
</defs>
</svg>
