<svg width="64" height="56" viewBox="0 0 64 56" fill="none" xmlns="http://www.w3.org/2000/svg">
<path d="M0.601562 21.4935L31.9973 0.600586L63.3984 21.4936L51.4247 55.2426H12.5753L0.601562 21.4935Z" stroke="#D2202F"/>
<path d="M34.3851 35.2483C33.8451 34.7083 33.3051 34.1683 32.7751 33.6383C29.9851 36.0083 25.7451 35.5283 23.4951 32.7483C21.3651 30.1083 21.5251 26.3783 23.8851 23.9583C26.1751 21.6083 29.9051 21.3383 32.4951 23.3383C33.9651 24.4783 34.8451 25.9783 35.0651 27.8283C35.2751 29.6883 34.7551 31.3383 33.6051 32.7683C34.1451 33.3083 34.6851 33.8483 35.2251 34.3883C35.2351 34.3783 35.2651 34.3683 35.2851 34.3383C35.6051 34.0583 35.8551 34.0683 36.1651 34.3683C36.5751 34.7683 36.9751 35.1683 37.3751 35.5683C38.4851 36.6683 39.5951 37.7683 40.7051 38.8683C41.2251 39.3883 41.3051 40.0983 40.9051 40.6483C40.4651 41.2583 39.5851 41.3783 38.9951 40.8983C38.9151 40.8283 38.8351 40.7483 38.7551 40.6783C37.3151 39.2283 35.8651 37.7883 34.4251 36.3383C33.9551 35.8883 33.9451 35.7083 34.3851 35.2483ZM23.1151 28.5683C23.1151 31.5683 25.5451 34.0083 28.5251 34.0083C31.5451 34.0083 33.9951 31.5683 33.9851 28.5683C33.9851 25.5983 31.5051 23.1183 28.5351 23.1183C25.5451 23.1183 23.1151 25.5583 23.1151 28.5683Z" fill="#D2202F"/>
<path d="M24.8651 30.3082C24.6151 30.2982 24.4051 30.1482 24.3351 29.8982C23.9151 28.3482 24.1751 26.9482 25.2251 25.7182C25.3151 25.6082 25.4551 25.5082 25.5951 25.4682C25.8051 25.3982 26.0151 25.4682 26.1551 25.6582C26.2951 25.8482 26.3051 26.0682 26.1851 26.2682C26.1451 26.3382 26.0851 26.3982 26.0351 26.4582C25.3151 27.3282 25.1051 28.3282 25.3551 29.4282C25.3751 29.4982 25.3951 29.5682 25.4151 29.6382C25.5051 30.0082 25.2451 30.3182 24.8651 30.3082Z" fill="#D2202F"/>
</svg>
