<svg width="16" height="16" viewBox="0 0 16 16" fill="none" xmlns="http://www.w3.org/2000/svg">
<path d="M14.5 12.5H13.5V11.5H14V9.5H12V10H11V9C11 8.86739 11.0527 8.74021 11.1464 8.64645C11.2402 8.55268 11.3674 8.5 11.5 8.5H14.5C14.6326 8.5 14.7598 8.55268 14.8536 8.64645C14.9473 8.74021 15 8.86739 15 9V12C15 12.1326 14.9473 12.2598 14.8536 12.3536C14.7598 12.4473 14.6326 12.5 14.5 12.5Z" fill="#333333"/>
<path d="M12 15H9C8.86739 15 8.74021 14.9473 8.64645 14.8536C8.55268 14.7598 8.5 14.6326 8.5 14.5V11.5C8.5 11.3674 8.55268 11.2402 8.64645 11.1464C8.74021 11.0527 8.86739 11 9 11H12C12.1326 11 12.2598 11.0527 12.3536 11.1464C12.4473 11.2402 12.5 11.3674 12.5 11.5V14.5C12.5 14.6326 12.4473 14.7598 12.3536 14.8536C12.2598 14.9473 12.1326 15 12 15ZM9.5 14H11.5V12H9.5V14Z" fill="#333333"/>
<path d="M7.5 9.92899C7.13872 9.83483 6.81108 9.64126 6.55428 9.37026C6.29749 9.09925 6.12182 8.76168 6.04724 8.39585C5.97266 8.03003 6.00215 7.65063 6.13236 7.30072C6.26256 6.95082 6.48828 6.64443 6.78386 6.41636C7.07945 6.18829 7.43306 6.04766 7.80455 6.01046C8.17604 5.97326 8.55051 6.04096 8.88546 6.20589C9.2204 6.37081 9.50239 6.62635 9.6994 6.94349C9.89641 7.26062 10.0006 7.62664 10 7.99999H11C11.0006 7.42789 10.8376 6.86756 10.5302 6.38505C10.2228 5.90255 9.78385 5.518 9.2651 5.27675C8.74636 5.03549 8.16946 4.94759 7.6024 5.02341C7.03535 5.09924 6.5018 5.33561 6.06467 5.70468C5.62754 6.07375 5.30504 6.56011 5.13522 7.10642C4.9654 7.65273 4.95532 8.23621 5.10619 8.78806C5.25705 9.33991 5.56256 9.83711 5.9867 10.221C6.41083 10.605 6.9359 10.8596 7.5 10.955V9.92899Z" fill="#333333"/>
<path d="M14.4451 6.775L13.2901 7.79L12.5801 7.08L13.7851 6.02L12.6051 3.98L10.8851 4.56C10.4822 4.22463 10.0259 3.95928 9.53511 3.775L9.18011 2H6.82011L6.46511 3.775C5.97041 3.95413 5.51158 4.21995 5.11011 4.56L3.39511 3.98L2.21511 6.02L3.57511 7.215C3.48261 7.73257 3.48261 8.26243 3.57511 8.78L2.21511 9.98L3.39511 12.02L5.11511 11.44C5.51801 11.7754 5.97436 12.0407 6.46511 12.225L6.82011 14H7.50011V15H6.82011C6.58888 14.9998 6.36486 14.9195 6.18618 14.7727C6.0075 14.626 5.8852 14.4218 5.84011 14.195L5.58511 12.935C5.35874 12.8246 5.13993 12.6993 4.93011 12.56L3.71511 12.97C3.61179 13.0036 3.50376 13.0205 3.39511 13.02C3.21947 13.0212 3.0467 12.9755 2.89463 12.8876C2.74257 12.7997 2.61673 12.6728 2.53011 12.52L1.35011 10.48C1.23341 10.2795 1.19004 10.0447 1.22744 9.81572C1.26484 9.58677 1.38067 9.37794 1.55511 9.225L2.51511 8.385C2.50511 8.255 2.50011 8.13 2.50011 8C2.50011 7.87 2.51011 7.745 2.52011 7.62L1.55511 6.775C1.38067 6.62206 1.26484 6.41324 1.22744 6.18428C1.19004 5.95533 1.23341 5.72049 1.35011 5.52L2.53011 3.48C2.61673 3.3272 2.74257 3.20029 2.89463 3.1124C3.0467 3.0245 3.21947 2.97879 3.39511 2.98C3.50376 2.9795 3.61179 2.99638 3.71511 3.03L4.92511 3.44C5.13664 3.30065 5.35712 3.17538 5.58511 3.065L5.84011 1.805C5.8852 1.57821 6.0075 1.37405 6.18618 1.22727C6.36486 1.0805 6.58888 1.00019 6.82011 1H9.18011C9.41135 1.00019 9.63537 1.0805 9.81405 1.22727C9.99273 1.37405 10.115 1.57821 10.1601 1.805L10.4151 3.065C10.6415 3.17541 10.8603 3.30068 11.0701 3.44L12.2851 3.03C12.3884 2.99638 12.4965 2.9795 12.6051 2.98C12.7808 2.97879 12.9535 3.0245 13.1056 3.1124C13.2577 3.20029 13.3835 3.3272 13.4701 3.48L14.6501 5.52C14.7668 5.72049 14.8102 5.95533 14.7728 6.18428C14.7354 6.41324 14.6196 6.62206 14.4451 6.775V6.775Z" fill="#333333"/>
</svg>
