<svg width="64" height="56" viewBox="0 0 64 56" fill="none" xmlns="http://www.w3.org/2000/svg">
<path d="M0.601562 21.4935L31.9973 0.600586L63.3984 21.4936L51.4247 55.2426H12.5753L0.601562 21.4935Z" stroke="#D2202F"/>
<path fill-rule="evenodd" clip-rule="evenodd" d="M31.7506 19C29.0606 19 26.8806 21 26.8806 23.46C26.8806 25.93 29.0606 27.92 31.7506 27.92C34.4406 27.92 36.6206 25.92 36.6206 23.46C36.6206 21 34.4406 19 31.7506 19ZM28.8306 23.47C28.8306 21.99 30.1306 20.79 31.7506 20.79C33.3706 20.79 34.6706 21.99 34.6706 23.47C34.6706 24.95 33.3606 26.15 31.7506 26.15C30.1406 26.15 28.8306 24.95 28.8306 23.47ZM27.8606 29.71C26.5606 29.71 25.3206 30.18 24.4106 31.02C23.4906 31.86 22.9806 33 23.0006 34.18V35.97C23.0006 36.46 23.4306 36.86 23.9706 36.86C24.5006 36.86 24.9406 36.46 24.9406 35.97V34.18C24.9406 33.47 25.2506 32.79 25.8006 32.29C26.3506 31.79 27.0906 31.51 27.8706 31.51H35.6706C36.4506 31.51 37.1906 31.79 37.7406 32.29C38.2906 32.79 38.6006 33.47 38.6006 34.18V35.97C38.6006 36.46 39.0306 36.86 39.5706 36.86C40.1006 36.86 40.5406 36.46 40.5406 35.97V34.18C40.5406 32.99 40.0206 31.86 39.1106 31.02C38.1906 30.18 36.9506 29.71 35.6606 29.71H27.8606Z" fill="#D2202F"/>
</svg>
