<svg width="16" height="16" viewBox="0 0 16 16" fill="none" xmlns="http://www.w3.org/2000/svg">
<path d="M8.49986 4.21436C7.97009 4.21436 7.45222 4.37145 7.01173 4.66578C6.57124 4.9601 6.22792 5.37844 6.02518 5.86788C5.82245 6.35733 5.76941 6.8959 5.87276 7.41549C5.97611 7.93508 6.23122 8.41236 6.60583 8.78696C6.98043 9.16157 7.45771 9.41668 7.9773 9.52003C8.49689 9.62338 9.03546 9.57034 9.52491 9.3676C10.0144 9.16487 10.4327 8.82155 10.727 8.38106C11.0213 7.94057 11.1784 7.4227 11.1784 6.89293C11.1784 6.18253 10.8962 5.50122 10.3939 4.99889C9.89157 4.49656 9.21026 4.21436 8.49986 4.21436ZM8.49986 8.50007C8.182 8.50007 7.87127 8.40581 7.60698 8.22922C7.34269 8.05262 7.1367 7.80162 7.01506 7.50795C6.89341 7.21429 6.86159 6.89114 6.9236 6.57939C6.98561 6.26763 7.13868 5.98127 7.36344 5.7565C7.5882 5.53174 7.87457 5.37868 8.18632 5.31666C8.49808 5.25465 8.82122 5.28648 9.11489 5.40812C9.40856 5.52976 9.65956 5.73575 9.83615 6.00005C10.0127 6.26434 10.107 6.57506 10.107 6.89293C10.1066 7.31904 9.93712 7.72757 9.63581 8.02888C9.33451 8.33018 8.92597 8.49964 8.49986 8.50007Z" fill="#333333"/>
<path d="M8.5 1C7.01664 1 5.56659 1.43987 4.33323 2.26398C3.09986 3.08809 2.13856 4.25943 1.57091 5.62987C1.00325 7.00032 0.854725 8.50832 1.14411 9.96317C1.4335 11.418 2.14781 12.7544 3.1967 13.8033C4.2456 14.8522 5.58197 15.5665 7.03682 15.8559C8.49168 16.1453 9.99968 15.9967 11.3701 15.4291C12.7406 14.8614 13.9119 13.9001 14.736 12.6668C15.5601 11.4334 16 9.98336 16 8.5C15.9977 6.51157 15.2068 4.60524 13.8008 3.1992C12.3948 1.79317 10.4884 1.00227 8.5 1V1ZM5.28572 14.0591V13.3214C5.28614 12.8953 5.4556 12.4868 5.75691 12.1855C6.05821 11.8842 6.46675 11.7147 6.89286 11.7143H10.1071C10.5333 11.7147 10.9418 11.8842 11.2431 12.1855C11.5444 12.4868 11.7139 12.8953 11.7143 13.3214V14.0591C10.7388 14.6287 9.62956 14.9288 8.5 14.9288C7.37044 14.9288 6.26116 14.6287 5.28572 14.0591V14.0591ZM12.7814 13.2818C12.7708 12.5791 12.4845 11.9087 11.9842 11.4151C11.484 10.9215 10.8099 10.6442 10.1071 10.6429H6.89286C6.1901 10.6442 5.51599 10.9215 5.01576 11.4151C4.51554 11.9087 4.22925 12.5791 4.21857 13.2818C3.24709 12.4143 2.562 11.2723 2.25402 10.0068C1.94604 8.74131 2.0297 7.41215 2.49392 6.19528C2.95813 4.97841 3.78101 3.93125 4.85359 3.19245C5.92618 2.45364 7.19786 2.05805 8.50027 2.05805C9.80268 2.05805 11.0744 2.45364 12.1469 3.19245C13.2195 3.93125 14.0424 4.97841 14.5066 6.19528C14.9708 7.41215 15.0545 8.74131 14.7465 10.0068C14.4385 11.2723 13.7534 12.4143 12.782 13.2818H12.7814Z" fill="#333333"/>
</svg>
